<svg width="388" height="236" viewBox="0 0 388 236" fill="none" xmlns="http://www.w3.org/2000/svg">
<g clip-path="url(#clip0_45_282)">
<path d="M89.4226 220.53L95.6539 218.503C96.4304 215.074 96.3789 211.502 95.5038 208.097C93.0004 213.805 85.6558 215.204 81.471 219.76C80.1764 221.191 79.2125 222.903 78.6507 224.768C78.0889 226.634 77.9436 228.605 78.2255 230.535L76.9146 235.096C79.9764 234.828 82.9452 233.882 85.6163 232.324C88.2875 230.765 90.5974 228.632 92.3871 226.07C93.3772 224.623 94.1856 223.053 94.7933 221.399C92.1359 221.126 89.4226 220.53 89.4226 220.53Z" fill="#F2F2F2"/>
<path d="M310.248 220.53L304.017 218.503C303.24 215.074 303.292 211.502 304.167 208.097C306.67 213.805 314.015 215.204 318.199 219.76C319.494 221.191 320.458 222.903 321.02 224.768C321.582 226.634 321.727 228.605 321.445 230.535L322.756 235.096C319.694 234.828 316.725 233.882 314.054 232.324C311.383 230.765 309.073 228.632 307.283 226.07C306.293 224.623 305.485 223.053 304.877 221.399C307.535 221.126 310.248 220.53 310.248 220.53Z" fill="#F2F2F2"/>
<path d="M82.7642 212.097L87.4599 207.433C86.6635 204.008 85.0639 200.834 82.8 198.188C83.0418 204.442 77.0763 209.052 75.3121 215.044C74.7759 216.917 74.6575 218.89 74.9659 220.817C75.2742 222.743 76.0013 224.574 77.0932 226.173L77.9032 230.854C80.5271 229.214 82.7729 227.01 84.486 224.393C86.1992 221.777 87.3388 218.811 87.8265 215.699C88.0833 213.951 88.1243 212.177 87.9486 210.418C85.4515 211.389 82.7642 212.097 82.7642 212.097Z" fill="#F2F2F2"/>
<path d="M95.3177 125.257C94.8048 125.327 94.283 125.281 93.7891 125.123C93.2953 124.964 92.8413 124.696 92.4593 124.338C92.0773 123.98 91.7764 123.541 91.578 123.05C91.3795 122.56 91.2883 122.031 91.3107 121.501L68.6775 97.9506L74.9958 93.4397L95.2567 118.008C96.1228 118.105 96.924 118.525 97.5083 119.188C98.0925 119.851 98.4194 120.711 98.4269 121.604C98.4345 122.498 98.1221 123.363 97.5491 124.036C96.976 124.709 96.1821 125.144 95.3177 125.257Z" fill="#FFB6B6"/>
<path d="M61.7147 87.764C61.7147 87.764 60.1106 88.75 62.7805 91.7524C64.9179 94.1561 74.2451 105.713 77.9681 108.126C77.7661 108.724 77.7638 109.374 77.9617 109.974C78.1595 110.573 78.5463 111.088 79.0611 111.438L84.7852 104.112C84.4582 102.012 83.0773 102.119 82.3016 102.374L78.7103 97.7963L70.5732 83.7996L62.8618 87.0302L61.7147 87.764Z" fill="#0066FF"/>
<path d="M43.8403 228.088H48.1074L50.1381 211.21H43.8403V228.088Z" fill="#FFB6B6"/>
<path d="M42.4477 225.091L49.2647 224.674V227.669L55.7457 232.259C56.0659 232.486 56.307 232.812 56.4338 233.189C56.5607 233.566 56.5666 233.975 56.4509 234.356C56.3351 234.736 56.1036 235.069 55.7903 235.306C55.4769 235.542 55.0981 235.67 54.7091 235.67H46.5932L45.1943 232.707L44.6481 235.67H41.5881L42.4477 225.091Z" fill="#2F2E41"/>
<path d="M67.8083 228.088H72.0754L74.1061 211.21H67.8083V228.088Z" fill="#FFB6B6"/>
<path d="M66.4157 225.091L73.2327 224.674V227.669L79.7137 232.259C80.0339 232.486 80.275 232.812 80.4018 233.189C80.5287 233.566 80.5347 233.975 80.4189 234.356C80.3031 234.736 80.0717 235.069 79.7583 235.306C79.4449 235.542 79.0661 235.67 78.6771 235.67H70.5612L69.1623 232.707L68.6161 235.67H65.5562L66.4157 225.091Z" fill="#2F2E41"/>
<path d="M41.9992 213.533H42.0456L42.8662 186.09C42.3352 185.04 42.0657 183.871 42.0817 182.688C42.0977 181.504 42.3988 180.344 42.9581 179.309L43.0755 179.091L42.7709 177.643C42.3797 175.782 42.5592 173.843 43.2849 172.091L44.0505 146.492C41.3155 128.314 54.3497 116.46 54.3497 116.46L51.9678 106.184L75.5493 103.806L73.8753 116.46L78.0672 131.23C80.8384 158.918 80.3355 185.899 75.938 212.039L76.0579 212.101C76.4896 212.254 76.6747 212.867 76.4715 213.47C76.2684 214.074 75.7537 214.44 75.322 214.287L65.0103 213.919C64.5786 213.766 64.3934 213.153 64.5966 212.549C64.7998 211.946 65.3145 211.58 65.7462 211.733L66.4473 212.097L64.952 185.615L65.118 180.778L64.7761 175.29L63.1955 150.608L57.2127 180.961L51.1016 213.839C51.2701 213.995 51.3884 214.2 51.4409 214.427C51.4933 214.654 51.4774 214.892 51.3953 215.11C51.3132 215.327 51.1687 215.514 50.9809 215.645C50.7932 215.777 50.5709 215.847 50.3435 215.846H41.9992C41.7002 215.846 41.4133 215.724 41.2019 215.507C40.9904 215.291 40.8716 214.996 40.8716 214.69C40.8716 214.383 40.9904 214.089 41.2019 213.872C41.4133 213.655 41.7002 213.533 41.9992 213.533Z" fill="#2F2E41"/>
<path d="M268.127 111.684H122.282C117.378 111.678 112.677 109.678 109.209 106.122C105.742 102.566 103.792 97.7446 103.786 92.7158V28.4253C103.792 23.4058 105.735 18.5928 109.191 15.0384C112.647 11.484 117.334 9.47748 122.229 9.45752C144.879 3.02808 168.929 -0.15199 193.722 0.00558037C217.313 0.155603 242.361 3.33567 268.171 9.45752C273.067 9.4754 277.757 11.481 281.215 15.0356C284.673 18.5901 286.617 23.4044 286.623 28.4253V92.7158C286.617 97.7446 284.667 102.566 281.199 106.122C277.732 109.678 273.031 111.678 268.127 111.684ZM122.282 10.2504C117.583 10.2559 113.078 12.1725 109.756 15.5798C106.433 18.987 104.565 23.6067 104.559 28.4253V92.7158C104.565 97.5344 106.433 102.154 109.756 105.561C113.078 108.969 117.583 110.885 122.282 110.891H268.127C272.826 110.885 277.33 108.969 280.653 105.561C283.975 102.154 285.844 97.5344 285.849 92.7158V28.4253C285.844 23.6067 283.975 18.987 280.653 15.5798C277.33 12.1725 272.826 10.2559 268.127 10.2504L268.04 10.2402C214.63 -2.43405 166.986 -2.43579 122.385 10.2361L122.282 10.2504Z" fill="#E6E6E6"/>
<path d="M119.709 94.905C119.652 94.9051 119.595 94.8934 119.542 94.8709C119.489 94.8483 119.441 94.8153 119.4 94.7736C119.359 94.7319 119.327 94.6824 119.305 94.628C119.283 94.5735 119.272 94.5152 119.272 94.4562V26.6847C119.272 26.5656 119.318 26.4515 119.4 26.3673C119.482 26.2831 119.593 26.2358 119.709 26.2358C119.825 26.2358 119.937 26.2831 120.019 26.3673C120.101 26.4515 120.147 26.5656 120.147 26.6847V94.4562C120.147 94.5152 120.136 94.5735 120.114 94.628C120.092 94.6824 120.06 94.7319 120.019 94.7736C119.978 94.8153 119.93 94.8483 119.877 94.8709C119.824 94.8934 119.767 94.9051 119.709 94.905Z" fill="#E6E6E6"/>
<path d="M157.981 94.905C157.923 94.9051 157.866 94.8934 157.813 94.8709C157.76 94.8483 157.712 94.8153 157.671 94.7736C157.631 94.7319 157.598 94.6824 157.576 94.628C157.555 94.5735 157.543 94.5152 157.543 94.4562V26.6847C157.543 26.5656 157.589 26.4515 157.671 26.3673C157.753 26.2831 157.865 26.2358 157.981 26.2358C158.097 26.2358 158.208 26.2831 158.29 26.3673C158.372 26.4515 158.419 26.5656 158.419 26.6847V94.4562C158.419 94.5152 158.407 94.5735 158.385 94.628C158.363 94.6824 158.331 94.7319 158.29 94.7736C158.25 94.8153 158.201 94.8483 158.148 94.8709C158.095 94.8934 158.038 94.9051 157.981 94.905Z" fill="#E6E6E6"/>
<path d="M196.253 94.905C196.195 94.9051 196.138 94.8934 196.085 94.8709C196.032 94.8483 195.984 94.8153 195.943 94.7736C195.902 94.7319 195.87 94.6824 195.848 94.628C195.826 94.5735 195.815 94.5152 195.815 94.4562V26.6847C195.815 26.5656 195.861 26.4515 195.943 26.3673C196.025 26.2831 196.137 26.2358 196.253 26.2358C196.369 26.2358 196.48 26.2831 196.562 26.3673C196.644 26.4515 196.69 26.5656 196.69 26.6847V94.4562C196.69 94.5152 196.679 94.5735 196.657 94.628C196.635 94.6824 196.603 94.7319 196.562 94.7736C196.521 94.8153 196.473 94.8483 196.42 94.8709C196.367 94.8934 196.31 94.9051 196.253 94.905Z" fill="#E6E6E6"/>
<path d="M234.524 94.905C234.467 94.9051 234.41 94.8934 234.357 94.8709C234.303 94.8483 234.255 94.8153 234.215 94.7736C234.174 94.7319 234.142 94.6824 234.12 94.628C234.098 94.5735 234.086 94.5152 234.086 94.4562V26.6847C234.086 26.5656 234.133 26.4515 234.215 26.3673C234.297 26.2831 234.408 26.2358 234.524 26.2358C234.64 26.2358 234.751 26.2831 234.834 26.3673C234.916 26.4515 234.962 26.5656 234.962 26.6847V94.4562C234.962 94.5152 234.95 94.5735 234.928 94.628C234.906 94.6824 234.874 94.7319 234.834 94.7736C234.793 94.8153 234.745 94.8483 234.692 94.8709C234.638 94.8934 234.582 94.9051 234.524 94.905Z" fill="#E6E6E6"/>
<path d="M116.301 36.7838C116.301 36.7248 116.312 36.6665 116.334 36.612C116.356 36.5576 116.388 36.5081 116.429 36.4664C116.47 36.4247 116.518 36.3916 116.571 36.3691C116.624 36.3465 116.681 36.3349 116.738 36.335H273.671C273.728 36.335 273.785 36.3466 273.838 36.3691C273.891 36.3917 273.939 36.4247 273.98 36.4664C274.021 36.5081 274.053 36.5576 274.075 36.612C274.097 36.6665 274.108 36.7248 274.108 36.7838C274.108 36.8427 274.097 36.9011 274.075 36.9555C274.053 37.01 274.021 37.0595 273.98 37.1011C273.939 37.1428 273.891 37.1759 273.838 37.1984C273.785 37.221 273.728 37.2326 273.671 37.2326H116.738C116.681 37.2326 116.624 37.221 116.571 37.1985C116.518 37.1759 116.47 37.1429 116.429 37.1012C116.388 37.0595 116.356 37.01 116.334 36.9556C116.312 36.9011 116.301 36.8427 116.301 36.7838Z" fill="#E6E6E6"/>
<path d="M116.301 86.7359C116.301 86.677 116.312 86.6186 116.334 86.5642C116.356 86.5097 116.388 86.4602 116.429 86.4185C116.47 86.3768 116.518 86.3438 116.571 86.3212C116.624 86.2987 116.681 86.2871 116.738 86.2871H273.671C273.787 86.2871 273.898 86.3344 273.98 86.4186C274.062 86.5027 274.108 86.6169 274.108 86.7359C274.108 86.855 274.062 86.9691 273.98 87.0533C273.898 87.1375 273.787 87.1847 273.671 87.1847H116.738C116.681 87.1848 116.624 87.1732 116.571 87.1506C116.518 87.1281 116.47 87.095 116.429 87.0533C116.388 87.0116 116.356 86.9622 116.334 86.9077C116.312 86.8532 116.301 86.7949 116.301 86.7359Z" fill="#E6E6E6"/>
<path d="M116.301 61.7599C116.301 61.7009 116.312 61.6425 116.334 61.5881C116.356 61.5336 116.388 61.4841 116.429 61.4424C116.47 61.4008 116.518 61.3677 116.571 61.3452C116.624 61.3226 116.681 61.311 116.738 61.311H273.671C273.787 61.311 273.898 61.3583 273.98 61.4425C274.062 61.5267 274.108 61.6408 274.108 61.7599C274.108 61.8789 274.062 61.993 273.98 62.0772C273.898 62.1614 273.787 62.2087 273.671 62.2087H116.738C116.681 62.2087 116.624 62.1971 116.571 62.1745C116.518 62.152 116.47 62.1189 116.429 62.0772C116.388 62.0356 116.356 61.9861 116.334 61.9316C116.312 61.8772 116.301 61.8188 116.301 61.7599Z" fill="#E6E6E6"/>
<path d="M271.575 94.905C271.632 94.9051 271.689 94.8934 271.742 94.8709C271.795 94.8483 271.844 94.8153 271.884 94.7736C271.925 94.7319 271.957 94.6824 271.979 94.628C272.001 94.5735 272.013 94.5152 272.013 94.4562V26.6847C272.013 26.5656 271.966 26.4515 271.884 26.3673C271.802 26.2831 271.691 26.2358 271.575 26.2358C271.459 26.2358 271.347 26.2831 271.265 26.3673C271.183 26.4515 271.137 26.5656 271.137 26.6847V94.4562C271.137 94.5152 271.149 94.5735 271.17 94.628C271.192 94.6824 271.225 94.7319 271.265 94.7736C271.306 94.8153 271.354 94.8483 271.407 94.8709C271.46 94.8934 271.517 94.9051 271.575 94.905Z" fill="#E6E6E6"/>
<path d="M143.581 58.719H132.558C131.952 58.7185 131.366 58.4938 130.908 58.086C130.45 57.6782 130.152 57.1147 130.066 56.4991C129.386 51.3626 129.386 46.1554 130.066 41.019C130.151 40.4108 130.443 39.8532 130.892 39.4464C131.341 39.0396 131.917 38.8102 132.516 38.7994C135.984 37.2051 139.719 37.2053 143.619 38.7992C143.982 38.8042 144.34 38.8906 144.667 39.0524C144.994 39.2142 145.283 39.4475 145.513 39.736C145.753 40.036 145.924 40.387 146.015 40.7635C146.106 41.1401 146.114 41.5326 146.039 41.9127C145.153 46.4318 145.153 51.0863 146.039 55.6053C146.114 55.9854 146.106 56.378 146.015 56.7545C145.924 57.131 145.753 57.4821 145.513 57.7821C145.279 58.0756 144.984 58.312 144.65 58.474C144.316 58.6361 143.951 58.7198 143.581 58.719Z" fill="#0066FF"/>
<path d="M142.427 44.7011H133.149C132.995 44.7011 132.847 44.6384 132.739 44.5269C132.63 44.4154 132.569 44.2641 132.569 44.1064C132.569 43.9487 132.63 43.7974 132.739 43.6859C132.847 43.5744 132.995 43.5117 133.149 43.5117H142.427C142.58 43.5117 142.728 43.5744 142.837 43.6859C142.945 43.7974 143.007 43.9487 143.007 44.1064C143.007 44.2641 142.945 44.4154 142.837 44.5269C142.728 44.6384 142.58 44.7011 142.427 44.7011Z" fill="white"/>
<path d="M142.427 49.4586H133.149C132.995 49.4586 132.847 49.396 132.739 49.2844C132.63 49.1729 132.569 49.0217 132.569 48.864C132.569 48.7062 132.63 48.555 132.739 48.4435C132.847 48.3319 132.995 48.2693 133.149 48.2693H142.427C142.58 48.2693 142.728 48.3319 142.837 48.4435C142.945 48.555 143.007 48.7062 143.007 48.864C143.007 49.0217 142.945 49.1729 142.837 49.2844C142.728 49.396 142.58 49.4586 142.427 49.4586Z" fill="white"/>
<path d="M142.427 54.2159H133.149C132.995 54.2159 132.847 54.1533 132.739 54.0418C132.63 53.9303 132.569 53.779 132.569 53.6213C132.569 53.4636 132.63 53.3123 132.739 53.2008C132.847 53.0893 132.995 53.0266 133.149 53.0266H142.427C142.58 53.0266 142.728 53.0893 142.837 53.2008C142.945 53.3123 143.007 53.4636 143.007 53.6213C143.007 53.779 142.945 53.9303 142.837 54.0418C142.728 54.1533 142.58 54.2159 142.427 54.2159Z" fill="white"/>
<path d="M222.83 84.8843H211.807C211.201 84.8838 210.615 84.6591 210.157 84.2512C209.7 83.8434 209.401 83.28 209.316 82.6644C208.635 77.5279 208.635 72.3207 209.316 67.1843C209.4 66.576 209.693 66.0185 210.141 65.6117C210.59 65.2049 211.166 64.9755 211.765 64.9647C215.233 63.3704 218.968 63.3706 222.868 64.9645C223.232 64.9695 223.589 65.0559 223.917 65.2177C224.244 65.3795 224.532 65.6128 224.762 65.9012C225.002 66.2013 225.174 66.5523 225.265 66.9288C225.355 67.3054 225.363 67.6979 225.288 68.078C224.402 72.597 224.402 77.2516 225.288 81.7706C225.363 82.1507 225.355 82.5433 225.265 82.9198C225.174 83.2963 225.002 83.6473 224.762 83.9474C224.528 84.2409 224.234 84.4773 223.899 84.6393C223.565 84.8014 223.2 84.8851 222.83 84.8843Z" fill="#0066FF"/>
<path d="M221.676 70.8666H212.398C212.244 70.8666 212.097 70.8039 211.988 70.6924C211.879 70.5809 211.818 70.4296 211.818 70.2719C211.818 70.1142 211.879 69.9629 211.988 69.8514C212.097 69.7399 212.244 69.6772 212.398 69.6772H221.676C221.83 69.6772 221.977 69.7399 222.086 69.8514C222.195 69.9629 222.256 70.1142 222.256 70.2719C222.256 70.4296 222.195 70.5809 222.086 70.6924C221.977 70.8039 221.83 70.8666 221.676 70.8666Z" fill="white"/>
<path d="M221.676 75.6239H212.398C212.244 75.6239 212.097 75.5613 211.988 75.4497C211.879 75.3382 211.818 75.187 211.818 75.0292C211.818 74.8715 211.879 74.7203 211.988 74.6088C212.097 74.4972 212.244 74.4346 212.398 74.4346H221.676C221.83 74.4346 221.977 74.4972 222.086 74.6088C222.195 74.7203 222.256 74.8715 222.256 75.0292C222.256 75.187 222.195 75.3382 222.086 75.4497C221.977 75.5613 221.83 75.6239 221.676 75.6239Z" fill="white"/>
<path d="M256.463 58.719H245.44C244.833 58.7185 244.248 58.4938 243.79 58.086C243.332 57.6782 243.033 57.1147 242.948 56.4991C242.268 51.3626 242.268 46.1554 242.948 41.019C243.032 40.4108 243.325 39.8532 243.774 39.4464C244.223 39.0396 244.798 38.8102 245.397 38.7994C248.866 37.2051 252.601 37.2053 256.501 38.7992C256.864 38.8042 257.222 38.8906 257.549 39.0524C257.876 39.2142 258.165 39.4475 258.395 39.736C258.635 40.036 258.806 40.387 258.897 40.7635C258.988 41.1401 258.996 41.5326 258.92 41.9127C258.035 46.4318 258.035 51.0863 258.92 55.6053C258.996 55.9854 258.988 56.378 258.897 56.7545C258.806 57.131 258.635 57.4821 258.395 57.7821C258.161 58.0756 257.866 58.312 257.532 58.474C257.198 58.6361 256.833 58.7198 256.463 58.719Z" fill="#FD6584"/>
<path d="M255.309 49.4586H246.031C245.877 49.4586 245.729 49.396 245.621 49.2844C245.512 49.1729 245.451 49.0217 245.451 48.864C245.451 48.7062 245.512 48.555 245.621 48.4435C245.729 48.3319 245.877 48.2693 246.031 48.2693H255.309C255.462 48.2693 255.61 48.3319 255.719 48.4435C255.827 48.555 255.888 48.7062 255.888 48.864C255.888 49.0217 255.827 49.1729 255.719 49.2844C255.61 49.396 255.462 49.4586 255.309 49.4586Z" fill="white"/>
<path d="M255.309 54.2159H246.031C245.877 54.2159 245.729 54.1533 245.621 54.0418C245.512 53.9303 245.451 53.779 245.451 53.6213C245.451 53.4636 245.512 53.3123 245.621 53.2008C245.729 53.0893 245.877 53.0266 246.031 53.0266H255.309C255.462 53.0266 255.61 53.0893 255.719 53.2008C255.827 53.3123 255.888 53.4636 255.888 53.6213C255.888 53.779 255.827 53.9303 255.719 54.0418C255.61 54.1533 255.462 54.2159 255.309 54.2159Z" fill="white"/>
<path d="M70.3949 56.9692C68.2017 53.5226 64.6207 50.814 60.6328 50.5852C56.6446 50.3563 51.8518 53.8391 49.8835 57.4229C46.283 63.9782 46.2358 71.4954 51.1947 76.0547C51.8681 75.8204 54.6693 75.4846 55.3539 75.2585L55.7881 74.4545L56.3237 74.9433C62.452 75.5703 64.3385 71.2974 74.1443 68.6032C73.5709 64.528 72.5881 60.4158 70.3949 56.9692Z" fill="#2F2E41"/>
<path d="M61.9767 73.2031C66.4525 73.2031 70.0808 69.4822 70.0808 64.8922C70.0808 60.3022 66.4525 56.5813 61.9767 56.5813C57.5009 56.5813 53.8726 60.3022 53.8726 64.8922C53.8726 69.4822 57.5009 73.2031 61.9767 73.2031Z" fill="#FFB7B7"/>
<path d="M70.9566 80.334L66.3191 77.4805L57.044 76.5293L48.8462 80.8103L48.9284 93.8881L54.129 107.452L74.3897 111.735L76.7535 99.8142C76.7535 99.8142 82.7823 91.5102 76.2898 86.7544L70.9566 80.334Z" fill="#0066FF"/>
<path d="M65.0067 52.2704C63.2507 51.7655 61.3946 51.7537 59.6327 52.2362C57.8707 52.7187 56.2675 53.6778 54.9907 55.0133C53.7139 56.3487 52.8104 58.0113 52.3746 59.8274C51.9389 61.6435 51.9869 63.5463 52.5137 65.3368C57.4495 65.7408 62.3283 65.2682 66.1742 61.6869L66.5165 58.6151L67.9198 61.1858C69.3351 60.7774 70.7527 60.3666 72.1724 59.9532C71.7381 58.1414 70.8478 56.4783 69.5903 55.1301C68.3328 53.7819 66.7523 52.7958 65.0067 52.2704Z" fill="#2F2E41"/>
<path d="M51.1052 136.8C50.6645 136.521 50.2887 136.147 50.0042 135.704C49.7197 135.261 49.5335 134.759 49.4587 134.233C49.3839 133.708 49.4222 133.173 49.571 132.664C49.7199 132.156 49.9756 131.687 50.3202 131.291L47.3296 98.3679L55.0054 98.9759L55.5314 131.147C56.1418 131.785 56.5028 132.63 56.5461 133.523C56.5894 134.415 56.312 135.293 55.7664 135.99C55.2208 136.686 54.4449 137.154 53.5858 137.303C52.7267 137.452 51.8441 137.273 51.1052 136.8Z" fill="#FFB6B6"/>
<path d="M49.1303 80.9415C49.1303 80.9415 47.2798 80.6639 47.4942 84.7213C47.6657 87.9696 46.8502 107.991 48.2438 112.276C47.7182 112.608 47.3152 113.11 47.0984 113.702C46.8815 114.295 46.8631 114.945 47.0461 115.549L55.9987 113.593C57.0417 111.754 56.8256 109.867 56.0676 109.561L56.1121 103.685L58.0907 84.3187L50.4713 81.1179L49.1303 80.9415Z" fill="#0066FF"/>
<path d="M94.8859 139.846C94.6462 139.546 94.4746 139.195 94.3837 138.818C94.2928 138.442 94.2848 138.049 94.3604 137.669C95.2459 133.15 95.2459 128.496 94.3604 123.977C94.2848 123.597 94.2928 123.204 94.3837 122.828C94.4746 122.451 94.6462 122.1 94.8859 121.8C95.1158 121.512 95.4045 121.278 95.7317 121.116C96.0589 120.955 96.4167 120.868 96.7799 120.863C100.68 119.269 104.415 119.269 107.883 120.863C108.482 120.874 109.058 121.104 109.507 121.51C109.956 121.917 110.248 122.475 110.333 123.083C111.013 128.219 111.013 133.427 110.333 138.563C110.247 139.179 109.949 139.742 109.491 140.15C109.033 140.558 108.447 140.783 107.841 140.783H96.8179C96.4482 140.784 96.083 140.7 95.7488 140.538C95.4146 140.376 95.1198 140.14 94.8859 139.846Z" fill="#0066FF"/>
<path d="M97.9722 126.765H107.25C107.404 126.765 107.551 126.702 107.66 126.591C107.769 126.479 107.83 126.328 107.83 126.17C107.83 126.013 107.769 125.861 107.66 125.75C107.551 125.638 107.404 125.576 107.25 125.576H97.9722C97.8184 125.576 97.6709 125.638 97.5622 125.75C97.4534 125.861 97.3923 126.013 97.3923 126.17C97.3923 126.328 97.4534 126.479 97.5622 126.591C97.6709 126.702 97.8184 126.765 97.9722 126.765Z" fill="white"/>
<path d="M97.9722 131.522H107.25C107.404 131.522 107.551 131.46 107.66 131.348C107.769 131.237 107.83 131.085 107.83 130.928C107.83 130.77 107.769 130.619 107.66 130.507C107.551 130.396 107.404 130.333 107.25 130.333H97.9722C97.8184 130.333 97.6709 130.396 97.5622 130.507C97.4534 130.619 97.3923 130.77 97.3923 130.928C97.3923 131.085 97.4534 131.237 97.5622 131.348C97.6709 131.46 97.8184 131.522 97.9722 131.522Z" fill="white"/>
<path d="M97.9722 136.28H107.25C107.404 136.28 107.551 136.217 107.66 136.105C107.769 135.994 107.83 135.843 107.83 135.685C107.83 135.527 107.769 135.376 107.66 135.265C107.551 135.153 107.404 135.09 107.25 135.09H97.9722C97.8184 135.09 97.6709 135.153 97.5622 135.265C97.4534 135.376 97.3923 135.527 97.3923 135.685C97.3923 135.843 97.4534 135.994 97.5622 136.105C97.6709 136.217 97.8184 136.28 97.9722 136.28Z" fill="white"/>
<path d="M352.984 230.943H348.229L345.967 212.136L352.985 212.136L352.984 230.943Z" fill="#A0616A"/>
<path d="M354.197 235.67L338.865 235.669V235.471C338.866 233.848 339.494 232.291 340.613 231.144C341.732 229.996 343.25 229.351 344.833 229.351L347.634 227.172L352.859 229.351L354.197 229.351L354.197 235.67Z" fill="#2F2E41"/>
<path d="M330.895 230.943H326.14L323.878 212.136L330.895 212.136L330.895 230.943Z" fill="#A0616A"/>
<path d="M332.107 235.67L316.776 235.669V235.471C316.776 233.848 317.405 232.291 318.524 231.144C319.643 229.996 321.161 229.351 322.743 229.351H322.744L325.544 227.172L330.769 229.351L332.107 229.351L332.107 235.67Z" fill="#2F2E41"/>
<path d="M356.768 110.531L350.483 130.352L330.667 129.686L336.756 110.531H356.768Z" fill="#2F2E41"/>
<path d="M327.094 128.02L364.451 129.019L363.801 147.675C363.801 147.675 364.451 152.672 363.152 154.004C361.852 155.337 361.203 155.337 361.852 157.669C362.502 160.001 359.069 163.809 359.486 164.237C359.903 164.664 360.878 166.996 360.878 166.996L357.629 185.985C357.629 185.985 355.355 218.965 354.706 219.631C354.056 220.297 353.406 219.631 354.056 221.297C354.706 222.962 355.355 222.296 354.706 222.962C354.13 223.599 353.588 224.266 353.082 224.961H345.228C345.228 224.961 344.636 221.63 344.636 221.297C344.636 220.964 343.986 218.965 343.986 218.632C343.986 218.299 344.56 217.71 344.56 217.71C344.759 217.033 344.893 216.337 344.96 215.634C344.96 214.967 346.91 189.316 346.91 189.316L343.011 156.003L333.591 188.65C333.591 188.65 333.591 217.299 332.941 217.965C332.292 218.632 332.292 218.299 332.616 219.631C332.941 220.964 334.241 220.63 333.266 221.63C332.292 222.629 331.967 220.964 332.292 222.629L332.616 224.295L322.871 224.438C322.871 224.438 321.572 221.63 322.221 220.63C322.871 219.631 322.832 219.904 322.04 218.268C321.247 216.633 320.922 216.3 321.247 215.967C321.572 215.634 321.572 213.862 321.572 213.862L323.196 181.987C323.196 181.987 323.521 148.341 323.521 147.342C323.545 146.827 323.453 146.314 323.251 145.843V144.486L324.495 139.68L327.094 128.02Z" fill="#2F2E41"/>
<path d="M330.505 79.5494L341.874 75.2188L360.715 76.5513L365.078 78.6391C366.612 79.3734 367.861 80.6155 368.624 82.1656C369.387 83.7158 369.62 85.4841 369.285 87.1862L363.639 115.861L365.099 129.657C365.099 129.657 341.387 148.008 322.871 142.345C322.871 142.345 323.196 137.015 323.521 135.016C323.846 133.017 324.495 133.017 324.82 132.018C325.145 131.018 325.795 132.018 325.145 130.019C324.495 128.02 330.342 114.029 330.342 114.029L330.505 79.5494Z" fill="#E6E6E6"/>
<path d="M348.476 82.0842L357.744 76.3413L354.706 70.7217H344.859L340.959 75.5674L348.476 82.0842Z" fill="#E6E6E6"/>
<path d="M351.665 129.303C352.194 129.334 352.724 129.246 353.217 129.045C353.709 128.843 354.153 128.534 354.516 128.138C354.879 127.741 355.154 127.268 355.319 126.752C355.485 126.235 355.538 125.688 355.475 125.148L367.066 119.363L361.303 115.861L351.18 121.891C350.302 122.06 349.516 122.553 348.969 123.276C348.422 124 348.153 124.904 348.212 125.818C348.272 126.732 348.657 127.591 349.293 128.233C349.929 128.875 350.773 129.256 351.665 129.303Z" fill="#A0616A"/>
<path d="M356.218 126.901L354.199 119.307L365.204 104.356C361.642 99.9517 360.392 93.4483 361.271 83.9125C361.076 82.884 361.269 81.8181 361.811 80.9299C362.353 80.0417 363.203 79.3973 364.19 79.1267C365.177 78.8561 366.227 78.9796 367.129 79.472C368.03 79.9645 368.716 80.7894 369.048 81.7803C371.538 89.2286 375.87 105.258 375.306 106.126C374.656 107.126 374.433 107.569 375.455 108.524C376.667 109.657 376.024 114.482 375.471 115.174C374.968 115.805 356.218 126.901 356.218 126.901Z" fill="#E6E6E6"/>
<path d="M297.956 117.508C298.451 117.704 298.981 117.787 299.511 117.751C300.04 117.714 300.555 117.559 301.019 117.296C301.483 117.033 301.886 116.669 302.198 116.23C302.51 115.79 302.725 115.286 302.826 114.752L315.589 112.893L311.152 107.747L299.712 110.301C298.827 110.186 297.93 110.407 297.193 110.924C296.456 111.441 295.929 112.217 295.713 113.105C295.497 113.993 295.605 114.932 296.019 115.744C296.432 116.555 297.122 117.183 297.956 117.508Z" fill="#A0616A"/>
<path d="M303.433 116.414L305.371 108.798L321.415 99.5275C322.575 91.995 323.302 89.5391 328.696 81.7197C329.027 80.7285 329.712 79.9029 330.613 79.4095C331.514 78.9161 332.565 78.7916 333.552 79.0612C334.539 79.3308 335.39 79.9743 335.932 80.862C336.475 81.7496 336.669 82.8153 336.475 83.844C335.016 91.5745 328.416 112.292 327.6 112.61C326.857 112.9 303.433 116.414 303.433 116.414Z" fill="#E6E6E6"/>
<path d="M349.67 67.2237C355.232 67.2237 359.741 62.6001 359.741 56.8967C359.741 51.1932 355.232 46.5696 349.67 46.5696C344.109 46.5696 339.6 51.1932 339.6 56.8967C339.6 62.6001 344.109 67.2237 349.67 67.2237Z" fill="#A0616A"/>
<path d="M339.007 49.405C339.274 46.9352 342.753 44.4653 348.908 42.8187C355.063 41.1721 358.274 48.3073 358.274 48.3073C362.555 50.5027 360.013 62.1659 358.675 61.0682C358.662 61.0572 358.648 61.0465 358.635 61.0361C357.763 60.3771 357.03 59.5426 356.483 58.5835C355.935 57.6245 355.584 56.561 355.451 55.4581L355.143 52.6159C353.733 53.7236 352.145 54.6614 350.44 54.3826L352.527 52.2753C350.549 53.1579 348.571 54.0405 346.593 54.9231L348.557 52.1512L348.464 52.0575C347.544 52.8527 346.489 53.4657 345.351 53.8653C344.053 54.2468 342.498 54.0404 341.608 52.9984C341.369 52.7109 341.188 52.377 341.076 52.0166C339.461 53.1509 339.14 55.5797 339.14 55.5797C339.14 55.5797 338.739 51.8749 339.007 49.405Z" fill="#2F2E41"/>
<path d="M298.6 124.215H287.577C286.971 124.214 286.385 123.99 285.927 123.582C285.47 123.174 285.171 122.611 285.086 121.995C284.405 116.858 284.405 111.651 285.086 106.515C285.17 105.907 285.463 105.349 285.912 104.942C286.36 104.535 286.936 104.306 287.535 104.295C291.003 102.701 294.738 102.701 298.638 104.295C299.002 104.3 299.359 104.386 299.687 104.548C300.014 104.71 300.302 104.943 300.532 105.232C300.772 105.532 300.944 105.883 301.035 106.259C301.125 106.636 301.133 107.028 301.058 107.409C300.172 111.928 300.172 116.582 301.058 121.101C301.133 121.481 301.125 121.874 301.035 122.25C300.944 122.627 300.772 122.978 300.532 123.278C300.298 123.571 300.004 123.808 299.669 123.97C299.335 124.132 298.97 124.216 298.6 124.215Z" fill="#3F3D56"/>
<path d="M297.446 110.197H288.168C288.014 110.197 287.866 110.134 287.758 110.023C287.649 109.911 287.588 109.76 287.588 109.602C287.588 109.445 287.649 109.294 287.758 109.182C287.866 109.07 288.014 109.008 288.168 109.008H297.446C297.6 109.008 297.747 109.07 297.856 109.182C297.964 109.294 298.026 109.445 298.026 109.602C298.026 109.76 297.964 109.911 297.856 110.023C297.747 110.134 297.6 110.197 297.446 110.197Z" fill="white"/>
<path d="M297.446 114.954H288.168C288.014 114.954 287.866 114.892 287.758 114.78C287.649 114.669 287.588 114.518 287.588 114.36C287.588 114.202 287.649 114.051 287.758 113.939C287.866 113.828 288.014 113.765 288.168 113.765H297.446C297.6 113.765 297.747 113.828 297.856 113.939C297.964 114.051 298.026 114.202 298.026 114.36C298.026 114.518 297.964 114.669 297.856 114.78C297.747 114.892 297.6 114.954 297.446 114.954Z" fill="white"/>
<path d="M297.446 119.712H288.168C288.014 119.712 287.866 119.649 287.758 119.538C287.649 119.426 287.588 119.275 287.588 119.117C287.588 118.959 287.649 118.808 287.758 118.697C287.866 118.585 288.014 118.522 288.168 118.522H297.446C297.6 118.522 297.747 118.585 297.856 118.697C297.964 118.808 298.026 118.959 298.026 119.117C298.026 119.275 297.964 119.426 297.856 119.538C297.747 119.649 297.6 119.712 297.446 119.712Z" fill="white"/>
<path d="M251.444 28.8779C255.5 28.8779 258.789 25.5055 258.789 21.3454C258.789 17.1854 255.5 13.813 251.444 13.813C247.387 13.813 244.099 17.1854 244.099 21.3454C244.099 25.5055 247.387 28.8779 251.444 28.8779Z" fill="#E6E6E6"/>
<path d="M255.214 18.2062C255.104 18.0982 254.957 18.0378 254.804 18.0378C254.652 18.0378 254.505 18.0982 254.394 18.2062C252.836 19.481 251.436 20.9473 250.226 22.5722C249.929 21.9829 249.632 21.3937 249.335 20.8044C248.993 20.1242 247.992 20.7251 248.334 21.4047C248.768 22.2666 249.203 23.1285 249.637 23.9904C249.69 24.0784 249.763 24.1511 249.851 24.2016C249.938 24.252 250.037 24.2785 250.138 24.2785C250.238 24.2785 250.337 24.252 250.425 24.2016C250.513 24.1511 250.586 24.0784 250.639 23.9904C251.928 22.1285 253.468 20.4642 255.214 19.0472C255.322 18.9353 255.383 18.7842 255.383 18.6267C255.383 18.4693 255.322 18.3182 255.214 18.2062Z" fill="white"/>
<path d="M215.492 28.8779C219.548 28.8779 222.837 25.5055 222.837 21.3454C222.837 17.1854 219.548 13.813 215.492 13.813C211.435 13.813 208.147 17.1854 208.147 21.3454C208.147 25.5055 211.435 28.8779 215.492 28.8779Z" fill="#E6E6E6"/>
<path d="M219.262 18.2062C219.152 18.0982 219.005 18.0378 218.852 18.0378C218.7 18.0378 218.553 18.0982 218.442 18.2062C216.884 19.481 215.484 20.9473 214.274 22.5722C213.977 21.9829 213.68 21.3937 213.383 20.8044C213.04 20.1242 212.039 20.7251 212.382 21.4047C212.816 22.2666 213.251 23.1285 213.685 23.9904C213.737 24.0784 213.811 24.1511 213.899 24.2016C213.986 24.252 214.085 24.2785 214.186 24.2785C214.286 24.2785 214.385 24.252 214.473 24.2016C214.56 24.1511 214.634 24.0784 214.686 23.9904C215.975 22.1285 217.516 20.4642 219.262 19.0472C219.37 18.9353 219.431 18.7842 219.431 18.6267C219.431 18.4693 219.37 18.3182 219.262 18.2062Z" fill="white"/>
<path d="M139.722 28.0849C143.778 28.0849 147.067 24.7125 147.067 20.5525C147.067 16.3924 143.778 13.02 139.722 13.02C135.665 13.02 132.377 16.3924 132.377 20.5525C132.377 24.7125 135.665 28.0849 139.722 28.0849Z" fill="#E6E6E6"/>
<path d="M143.492 17.4133C143.382 17.3052 143.235 17.2449 143.082 17.2449C142.93 17.2449 142.783 17.3052 142.672 17.4133C141.114 18.688 139.714 20.1543 138.504 21.7792C138.207 21.19 137.91 20.6007 137.613 20.0114C137.27 19.3312 136.269 19.9321 136.612 20.6117C137.046 21.4736 137.481 22.3355 137.915 23.1974C137.967 23.2854 138.041 23.3581 138.129 23.4086C138.216 23.459 138.315 23.4855 138.416 23.4855C138.516 23.4855 138.615 23.459 138.703 23.4086C138.79 23.3581 138.864 23.2854 138.916 23.1974C140.205 21.3356 141.746 19.6712 143.492 18.2543C143.6 18.1423 143.661 17.9912 143.661 17.8338C143.661 17.6763 143.6 17.5253 143.492 17.4133Z" fill="white"/>
<path d="M51.9679 59.0075C54.7435 59.0075 56.9935 56.7001 56.9935 53.8537C56.9935 51.0074 54.7435 48.7 51.9679 48.7C49.1924 48.7 46.9424 51.0074 46.9424 53.8537C46.9424 56.7001 49.1924 59.0075 51.9679 59.0075Z" fill="#2F2E41"/>
<path d="M109.275 235.528C109.275 235.59 109.263 235.652 109.24 235.709C109.217 235.766 109.183 235.818 109.141 235.862C109.098 235.906 109.047 235.941 108.991 235.964C108.935 235.988 108.875 236 108.815 236H0.460033C0.338025 236 0.221012 235.95 0.13474 235.862C0.0484668 235.773 0 235.653 0 235.528C0 235.403 0.0484668 235.283 0.13474 235.195C0.221012 235.106 0.338025 235.056 0.460033 235.056H108.815C108.875 235.056 108.935 235.068 108.991 235.092C109.047 235.116 109.098 235.15 109.141 235.194C109.183 235.238 109.217 235.29 109.24 235.347C109.263 235.405 109.275 235.466 109.275 235.528Z" fill="#CCCCCC"/>
<path d="M388 235.528C388 235.59 387.988 235.652 387.965 235.709C387.942 235.766 387.908 235.818 387.866 235.862C387.823 235.906 387.772 235.941 387.716 235.964C387.66 235.988 387.6 236 387.54 236H279.185C279.063 236 278.946 235.95 278.86 235.862C278.774 235.773 278.725 235.653 278.725 235.528C278.725 235.403 278.774 235.283 278.86 235.195C278.946 235.106 279.063 235.056 279.185 235.056H387.54C387.6 235.056 387.66 235.068 387.716 235.092C387.772 235.116 387.823 235.15 387.866 235.194C387.908 235.238 387.942 235.29 387.965 235.347C387.988 235.405 388 235.466 388 235.528Z" fill="#CCCCCC"/>
<path d="M50.4543 48.6844C49.5844 48.4362 48.6796 48.8518 47.8677 49.257L44.9797 50.6983C46.9791 50.8782 48.9785 51.0581 50.9779 51.238L51.1988 50.8117C51.8908 50.2168 51.3242 48.9325 50.4543 48.6844Z" fill="#2F2E41"/>
</g>
<defs>
<clipPath id="clip0_45_282">
<rect width="388" height="236" fill="white"/>
</clipPath>
</defs>
</svg>
