<svg width="347" height="249" viewBox="0 0 347 249" fill="none" xmlns="http://www.w3.org/2000/svg">
<g clip-path="url(#clip0_44_29)">
<path d="M280.822 158.438C281.133 158.466 281.444 158.399 281.715 158.245C281.985 158.09 282.202 157.856 282.336 157.574C282.469 157.292 282.513 156.976 282.461 156.669C282.409 156.361 282.263 156.077 282.045 155.855C282.014 155.701 281.991 155.59 281.96 155.436C281.975 155.404 281.991 155.371 282.006 155.339C282.354 154.613 282.908 154.006 283.599 153.594C284.29 153.182 285.087 152.984 285.89 153.025C286.693 153.065 287.467 153.342 288.113 153.821C288.759 154.3 289.25 154.96 289.523 155.717C290.615 158.74 292.042 161.783 292.282 164.936C292.387 166.33 292.25 167.731 291.877 169.078C295.058 162.905 296.877 156.119 297.209 149.181C297.291 147.439 297.275 145.695 297.162 143.955C297.068 142.529 296.912 141.111 296.693 139.699C295.498 132.039 292.505 124.772 287.961 118.496C285.684 117.111 283.886 115.06 282.809 112.621C282.419 111.744 282.157 110.815 282.033 109.863C282.295 109.909 282.562 109.944 282.824 109.973C282.906 109.981 282.992 109.99 283.074 109.998L283.105 110.001C283.394 110.027 283.685 109.969 283.942 109.834C284.199 109.7 284.411 109.493 284.554 109.24C284.696 108.987 284.763 108.698 284.745 108.408C284.727 108.118 284.626 107.839 284.454 107.605C284.347 107.46 284.24 107.314 284.132 107.169C283.969 106.945 283.802 106.725 283.639 106.5C283.62 106.479 283.603 106.456 283.586 106.433C283.399 106.177 283.212 105.925 283.024 105.67C283.413 105.123 283.923 104.674 284.514 104.356C286.56 103.282 289.269 104.218 290.624 106.089C291.983 107.96 292.137 110.503 291.532 112.733C290.95 114.627 290.05 116.408 288.871 118C288.973 118.144 289.079 118.283 289.18 118.427C291.036 121.06 292.63 123.87 293.938 126.815C293.738 123.574 294.308 120.333 295.602 117.356C296.903 114.587 299.205 112.311 301.248 109.959C303.703 107.135 308.397 108.636 308.632 112.373C308.634 112.409 308.637 112.445 308.639 112.481C308.344 112.63 308.056 112.788 307.773 112.957C307.417 113.172 307.135 113.489 306.962 113.867C306.79 114.245 306.735 114.667 306.806 115.077C306.877 115.486 307.07 115.865 307.359 116.163C307.649 116.461 308.022 116.665 308.429 116.747L308.47 116.756C308.32 117.785 308.092 118.802 307.788 119.797C306.911 122.573 305.472 125.138 303.559 127.332C301.646 129.525 299.301 131.299 296.671 132.542C296.499 132.62 296.33 132.699 296.158 132.774C297.416 136.953 298.126 141.278 298.27 145.641C298.347 148.215 298.215 150.79 297.877 153.342L297.894 153.252C298.58 150.428 300.218 147.928 302.531 146.174C305.965 143.607 310.685 142.823 314.355 140.803C314.745 140.577 315.192 140.467 315.643 140.487C316.094 140.507 316.529 140.656 316.898 140.915C317.268 141.175 317.555 141.535 317.726 141.953C317.898 142.37 317.947 142.829 317.867 143.273C317.86 143.305 317.854 143.336 317.848 143.368C317.306 143.56 316.776 143.786 316.262 144.044C315.968 144.192 315.679 144.351 315.396 144.52C315.041 144.735 314.758 145.052 314.586 145.43C314.413 145.808 314.359 146.23 314.43 146.64C314.501 147.049 314.693 147.428 314.983 147.726C315.272 148.024 315.645 148.228 316.052 148.31L316.094 148.318C316.124 148.324 316.149 148.33 316.179 148.335C315.169 150.466 313.801 152.406 312.133 154.072C310.076 156.086 307.629 157.658 304.942 158.692C302.256 159.726 299.387 160.199 296.512 160.084L296.507 160.084C295.569 163.442 294.285 166.694 292.675 169.787L280.623 169.226C280.586 169.089 280.554 168.949 280.521 168.813C281.634 168.936 282.757 168.921 283.865 168.77C283.022 167.63 282.18 166.481 281.336 165.34C281.317 165.319 281.3 165.296 281.283 165.273C280.856 164.69 280.424 164.11 279.997 163.527L279.996 163.526C280.052 161.802 280.33 160.091 280.822 158.438L280.822 158.438Z" fill="#F2F2F2"/>
<path d="M37.9899 54.0937C37.6821 54.1417 37.367 54.0937 37.0873 53.9563C36.8076 53.819 36.5768 53.5988 36.4263 53.3257C36.2757 53.0527 36.2126 52.7398 36.2456 52.4297C36.2785 52.1195 36.4059 51.827 36.6104 51.5917C36.6321 51.436 36.6476 51.3242 36.6692 51.1685C36.652 51.137 36.6347 51.1055 36.6173 51.0741C36.2256 50.3709 35.635 49.7993 34.9199 49.4312C34.2047 49.063 33.3969 48.9146 32.5978 49.0046C31.7987 49.0946 31.0439 49.4191 30.4284 49.9372C29.8129 50.4553 29.364 51.144 29.1381 51.9167C28.2349 55.001 26.998 58.1268 26.9534 61.2887C26.9342 62.6863 27.1574 64.0767 27.6129 65.3979C24.0567 59.4333 21.8229 52.7729 21.0631 45.8681C20.8742 44.1353 20.7823 42.3932 20.7876 40.6501C20.7933 39.2209 20.8617 37.7951 20.9928 36.3726C21.7131 28.6535 24.2518 21.2155 28.4005 14.6695C30.5872 13.1464 32.2551 10.9888 33.1793 8.48732C33.5149 7.58778 33.7186 6.64435 33.7841 5.68637C33.5257 5.74936 33.2615 5.79991 33.0011 5.84567C32.9199 5.85884 32.8344 5.87253 32.7531 5.88574L32.7225 5.89048C32.4357 5.93482 32.1422 5.89521 31.8774 5.77642C31.6125 5.65763 31.3876 5.46473 31.2297 5.22094C31.0718 4.97715 30.9877 4.69286 30.9874 4.40231C30.9872 4.11175 31.0708 3.82731 31.2282 3.58323C31.3263 3.43138 31.4244 3.2796 31.5227 3.12788C31.6713 2.89392 31.8246 2.66381 31.9732 2.42989C31.9908 2.40729 32.0071 2.38368 32.022 2.35921C32.1932 2.09232 32.3647 1.82975 32.5358 1.56287C32.1139 1.04122 31.5773 0.624205 30.968 0.344328C28.8599 -0.601997 26.2132 0.500654 24.9766 2.45145C23.7357 4.40268 23.7384 6.95024 24.4807 9.13846C25.1784 10.9932 26.1863 12.7156 27.4613 14.2317C27.3687 14.3812 27.2714 14.5268 27.1789 14.6763C25.4891 17.4196 24.0718 20.3222 22.9474 23.3424C22.948 20.096 22.1787 16.8959 20.703 14.0053C19.2341 11.3215 16.796 9.19201 14.6115 6.9715C11.9874 4.30433 7.39516 6.09318 7.39063 9.83697C7.39058 9.87322 7.39063 9.90945 7.39077 9.94565C7.69356 10.0757 7.99139 10.2163 8.28427 10.3675C8.65245 10.5598 8.95406 10.8589 9.14956 11.2256C9.34506 11.5924 9.42534 12.0098 9.37989 12.423C9.33443 12.8363 9.16537 13.2262 8.89483 13.5416C8.62429 13.857 8.26491 14.0832 7.86376 14.1906L7.82269 14.2016C8.03615 15.2199 8.32661 16.2206 8.69158 17.1948C9.73759 19.9117 11.3329 22.3829 13.3775 24.4536C15.4221 26.5242 17.8719 28.1496 20.5733 29.2279C20.7503 29.2957 20.9231 29.364 21.0996 29.4275C20.1019 33.6767 19.6604 38.0378 19.786 42.4011C19.8683 44.9744 20.1583 47.5368 20.6532 50.0633L20.6305 49.9743C19.7721 47.1984 17.9832 44.8042 15.566 43.196C11.98 40.8471 7.22107 40.3566 3.4334 38.5671C3.02963 38.3655 2.57672 38.2838 2.1281 38.3316C1.67947 38.3793 1.25384 38.5546 0.901408 38.8366C0.548973 39.1186 0.284433 39.4956 0.138989 39.9232C-0.00645436 40.3508 -0.0267369 40.8111 0.0805361 41.2498C0.0887359 41.281 0.0970215 41.3121 0.105387 41.3433C0.658225 41.5015 1.20068 41.694 1.7296 41.9198C2.03238 42.0499 2.33021 42.1905 2.62309 42.3417C2.99127 42.5339 3.29288 42.833 3.48838 43.1998C3.68388 43.5666 3.76416 43.984 3.71871 44.3972C3.67325 44.8105 3.50418 45.2003 3.23365 45.5157C2.96311 45.8311 2.60373 46.0574 2.20258 46.1648L2.16147 46.1758C2.13186 46.1833 2.10652 46.1905 2.07695 46.1981C3.21639 48.262 4.70216 50.1141 6.46917 51.6733C8.64734 53.5564 11.1867 54.9743 13.9316 55.8399C16.6765 56.7055 19.5691 57.0007 22.432 56.7073L22.4363 56.7068C23.58 60.0011 25.0625 63.1675 26.8599 66.155L38.8541 64.8488C38.8827 64.7106 38.9064 64.5687 38.9306 64.431C37.828 64.6218 36.7062 64.6767 35.5902 64.5945C36.3614 63.4043 37.1315 62.2055 37.9027 61.0153C37.9203 60.9927 37.9366 60.9691 37.9515 60.9446C38.3421 60.3359 38.7375 59.731 39.1281 59.1223L39.1283 59.1216C38.966 57.4038 38.5835 55.714 37.9903 54.094L37.9899 54.0937Z" fill="#F2F2F2"/>
<path d="M203.7 49.6434C204.293 49.8069 204.844 50.0988 205.313 50.4985C205.782 50.8981 206.157 51.3959 206.413 51.9566C206.669 52.5173 206.799 53.1274 206.794 53.7439C206.789 54.3603 206.649 54.9682 206.384 55.5246L212.82 62.6894L209.426 67.6675L200.478 57.4217C199.574 56.9139 198.887 56.0917 198.548 55.1109C198.209 54.13 198.241 53.0587 198.638 52.0999C199.035 51.1411 199.77 50.3615 200.703 49.9088C201.636 49.456 202.702 49.3616 203.7 49.6434Z" fill="#A0616A"/>
<path d="M263.956 67.2363C263.376 66.2907 262.615 65.4691 261.717 64.8186C260.819 64.1681 259.801 63.7016 258.723 63.4457C257.644 63.1898 256.526 63.1496 255.432 63.3274C254.338 63.5052 253.289 63.8975 252.347 64.4819L231.179 77.6082L208.346 58.1748L202.665 63.4707L227.889 96.2386L260.674 79.1264C259.909 79.5258 264.881 68.7429 263.956 67.2363Z" fill="#CCCCCC"/>
<path d="M222.022 110.882C222.024 121.349 219.967 131.715 215.967 141.386C211.967 151.056 206.104 159.844 198.711 167.245C191.319 174.647 182.542 180.517 172.883 184.522C163.224 188.527 152.872 190.587 142.418 190.585C98.4538 190.585 62.813 154.9 62.813 110.882C62.8054 102.32 64.1763 93.8126 66.8729 85.6872C72.1671 69.8185 82.3096 56.0176 95.8662 46.2361C109.423 36.4546 125.708 31.1874 142.418 31.1794C156.829 31.1744 170.971 35.0878 183.335 42.5019C195.698 49.916 205.818 60.5524 212.616 73.2757C214.301 76.4149 215.771 79.6651 217.016 83.0039C217.188 83.4688 217.356 83.9337 217.52 84.4031V84.4075C218.25 86.4709 218.893 88.5727 219.448 90.7129C221.163 97.2984 222.028 104.077 222.022 110.882Z" fill="#3F3D56"/>
<path d="M133.708 57.1076C130.131 55.1706 126.159 54.0772 122.095 53.9108C118.032 53.7443 113.984 54.5092 110.26 56.1471C106.982 57.5756 103.53 60.1382 102.436 64.7659C106.859 62.1522 112.585 66.2818 113.724 72.9066L113.458 72.9799C112.857 77.5684 114.199 82.5641 116.797 85.4094C117.138 82.454 119.079 80.4426 120.988 79.1861C122.897 77.9297 125.009 77.0169 126.466 74.8572C128.193 72.2969 128.632 68.5549 129.318 65.1413C130.004 61.7277 131.306 58.0588 133.708 57.1076Z" fill="white"/>
<path d="M108.948 96.1546C107.723 97.9966 106.087 99.1524 104.619 100.591C103.155 102.035 101.762 103.983 101.47 106.485C101.284 108.088 101.572 109.717 101.532 111.338C101.492 112.959 100.953 114.783 99.8513 115.186C98.1133 115.815 96.7865 112.582 94.9999 112.356C93.5802 112.179 92.3022 114.415 92.7134 116.355C93.1247 118.294 95.0574 119.153 96.1674 117.887C97.1713 119.574 96.4637 122.634 94.9557 123.152C94.7964 124.214 94.6373 125.273 94.4824 126.335C90.6703 123.665 86.8183 120.951 83.5766 117.041C79.9713 112.73 77.7352 107.438 77.1552 101.845C76.7351 97.3502 77.3586 92.2094 75.2978 88.7512C73.6481 85.9837 70.8177 85.3726 68.2704 85.5454C67.8061 85.5763 67.3373 85.6295 66.8729 85.687C68.3752 81.1695 70.2832 76.7975 72.5735 72.6246C73.0918 72.4019 73.5734 72.1018 74.0019 71.7346C76.3724 69.72 77.4249 65.6418 79.3487 62.8212C79.4726 62.6396 79.6008 62.4625 79.7335 62.2899C81.7015 59.7172 84.3373 58.3933 86.8846 57.1623C92.5233 54.4214 98.3255 51.6451 104.278 52.0259L102.584 52.1897C100.608 57.7335 98.6293 63.2773 96.6495 68.8211C96.3487 69.6712 96.045 70.5228 95.7385 71.376C94.6151 74.5286 93.4564 77.885 93.6289 81.4141C93.7306 83.504 94.4559 85.7357 95.8357 86.453C97.1226 87.1172 98.529 86.3025 99.7717 85.4966C100.298 85.1601 100.82 84.8235 101.346 84.4826C103.235 83.2649 105.326 82.0162 107.321 82.831C109.147 83.5749 110.496 86.0589 110.753 88.7379C110.988 91.342 110.353 93.9506 108.948 96.1546Z" fill="white"/>
<path d="M120.18 134.003C114.664 130.603 109.149 127.203 103.634 123.803L103.727 123.562C100.298 124.87 98.8746 130.973 99.4413 135.964C100.008 140.955 101.93 145.416 102.9 150.279C104.209 156.934 103.715 163.819 101.47 170.218C108.722 162.07 115.14 153.215 120.628 143.786C121.394 142.597 121.979 141.301 122.361 139.938C122.711 138.489 122.657 136.747 121.956 135.585C121.504 134.918 120.894 134.375 120.18 134.003Z" fill="white"/>
<path d="M98.4128 72.1472C97.8271 73.4656 97.6018 75.2236 98.1333 76.5877C98.676 77.9809 99.8234 78.6105 100.88 79.1347L103.927 80.6471C104.941 81.1502 106.034 81.6584 107.067 81.2445C108.314 80.7452 109.178 78.7885 108.955 76.972C108.717 75.039 107.5 73.7094 106.374 72.5771C104.799 70.9925 103.224 69.408 101.649 67.8235L100.762 68.912C99.8015 69.8496 99.0073 70.9436 98.4128 72.1472Z" fill="white"/>
<path d="M205.686 92.8117C207.057 93.1349 208.428 93.4582 209.799 93.7814C209.56 98.4175 207.264 102.708 204.186 104.262C202.904 104.909 201.475 105.148 200.414 106.357C199.454 107.455 198.968 109.164 198.521 110.798C197.738 113.65 196.956 116.501 196.173 119.353C195.333 122.426 194.254 125.84 192.069 126.947C190.194 127.899 188.049 126.734 186.607 124.781C185.165 122.829 184.285 120.203 183.432 117.644C183.485 120.433 182.189 123.17 180.354 124.139C178.514 125.109 176.276 124.232 175.047 122.067C174.162 120.513 173.795 118.463 172.928 116.886C172.062 115.31 170.244 114.407 169.298 115.886C168.674 116.869 168.753 118.374 168.444 119.623C167.962 121.562 166.503 122.78 165.056 122.886C163.615 122.992 162.208 122.16 161.001 121.031C158.511 118.693 156.676 114.982 155.964 110.86C155.65 109.022 155.561 107.021 156.105 105.298C156.649 103.576 157.963 102.248 159.267 102.575C160.125 100.76 158.432 98.351 156.906 98.5636C155.376 98.7761 154.177 100.419 152.921 101.681C151.67 102.943 149.918 103.859 148.658 102.606C148.667 103.771 147.72 104.541 146.902 104.444C146.088 104.351 145.363 103.696 144.616 103.231C141.728 101.428 138.062 102.624 136.01 106.033C137.292 100.569 139.172 94.2994 143.112 93.0153C144.722 92.4884 146.478 92.9224 147.999 92.0102C150.692 90.394 151.236 84.2879 148.91 81.7684C149.206 84.1506 149.149 86.9313 147.893 88.5608C146.637 90.1903 144.001 89.1276 144.16 86.7188C143.797 88.3793 141.993 88.6317 141.162 87.3564C140.326 86.0812 140.397 83.9957 140.989 82.4724C141.582 80.9492 142.59 79.8555 143.568 78.8061C145.668 76.5523 147.8 74.2719 150.232 72.8549C152.669 71.438 155.482 70.9598 157.923 72.3679C159.21 73.1118 160.342 74.3516 161.655 75.007C162.969 75.6667 164.636 75.5826 165.507 74.0416C166.485 72.3236 166.025 69.7731 166.388 67.6256C167.038 63.8309 170.828 62.0553 172.928 64.5614C171.358 64.1585 169.735 66.0182 169.541 68.2721C169.342 70.5259 170.478 72.8019 172 73.4838C174.556 74.6173 177.059 71.7657 178.992 69.1267C181.008 66.3636 183.028 63.6021 185.05 60.842C185.373 60.3721 185.736 59.9306 186.134 59.5225C186.767 58.9043 187.612 58.5503 188.496 58.5322C189.381 58.5141 190.239 58.8333 190.897 59.4251C192.94 61.0944 193.9 64.5172 195.576 66.8729C198.008 70.2956 201.648 71.1281 205.036 71.7923C207.561 72.2838 210.087 72.7782 212.616 73.2756C214.301 76.4148 215.771 79.665 217.016 83.0038C212.735 84.8237 208.786 88.2288 205.686 92.8117Z" fill="white"/>
<path d="M213.849 146.089C211.955 149.941 209.751 153.632 207.26 157.127C205.668 156.445 203.956 157.663 202.466 158.806C200.909 160.001 199.039 161.166 197.442 160.076C195.81 158.961 195.284 155.839 195.801 153.364C196.319 150.893 197.61 148.927 198.862 147.058C200.188 145.075 201.608 143.016 203.452 142.245C205.301 141.475 207.676 142.564 208.215 145.194L209.524 145.15C208.79 144.14 209.175 142.05 210.161 141.683C211.298 141.253 212.284 142.816 212.956 144.198C213.257 144.822 213.562 145.451 213.849 146.089Z" fill="white"/>
<path d="M163.714 127.385C160.9 127.562 158.671 124.094 157.19 120.683C155.709 117.271 154.358 113.369 151.819 111.632C150.368 110.64 148.714 110.504 147.141 110.023C145.567 109.542 143.92 108.547 143.168 106.521L141.383 105.799C139.026 107.126 136.638 108.477 134.607 110.637C132.329 113.06 130.91 116.166 130.569 119.476C130.228 123.053 131.487 127.041 133.839 128.385C135.698 129.447 137.863 128.778 139.745 129.75C142.098 130.964 143.495 134.492 144.023 137.975C144.552 141.458 144.418 145.078 144.796 148.601C145.175 152.124 146.217 155.789 148.375 157.594C151.074 159.853 155.036 157.976 156.247 153.864C156.841 151.847 156.821 149.571 157.265 147.477C158.048 143.789 160.159 141.054 161.834 138.029C163.509 135.004 164.828 130.896 163.714 127.385Z" fill="white"/>
<path d="M135.91 91.151C136.172 91.3928 136.417 91.6531 136.643 91.9298C136.876 92.3326 136.995 92.7915 136.987 93.2572C136.979 93.7228 136.845 94.1774 136.598 94.572C136.937 94.5527 137.268 94.4632 137.57 94.3092C137.873 94.1552 138.14 93.94 138.356 93.6773C138.869 93.0917 139.321 92.4546 139.704 91.776C139.991 91.3075 140.296 90.674 140.101 90.1175C139.968 89.7377 139.654 89.5757 139.434 89.29C139.084 88.8373 138.998 88.1182 138.817 87.4968C138.427 86.1546 137.491 85.1677 136.476 85.0266L136.617 85.0536C136.193 85.1991 135.897 85.8734 135.991 86.4802C136.076 87.0327 136.431 87.4914 136.395 88.055C136.345 88.8653 135.536 89.2456 135.486 90.0561C135.478 90.4627 135.63 90.856 135.91 91.151Z" fill="white"/>
<path d="M131.089 77.3798C131.093 77.3787 131.098 77.3784 131.102 77.3774C131.188 77.2984 131.268 77.2128 131.342 77.1213L131.089 77.3798Z" fill="#E6E6E6"/>
<path d="M131.933 81.1837C132.555 80.7832 132.902 79.6754 132.697 78.7483C132.492 77.8269 131.769 77.2073 131.102 77.3775C130.908 77.574 130.668 77.718 130.403 77.7959C130.139 77.8739 129.859 77.8832 129.59 77.8231C129.177 77.7168 128.724 77.4429 128.367 77.7541C128.162 77.9865 128.019 78.2666 127.95 78.5687C127.818 78.9758 127.685 79.3828 127.553 79.7898C127.49 79.9355 127.473 80.0971 127.506 80.2525C127.531 80.3148 127.572 80.3695 127.625 80.4113C127.677 80.4532 127.74 80.4808 127.806 80.4915C128.601 80.7261 129.395 80.9606 130.19 81.1951C130.769 81.366 131.394 81.5307 131.933 81.1837Z" fill="white"/>
<path d="M191.92 133.698C191.553 133.096 191.186 132.494 190.818 131.892C190.457 131.195 189.964 130.575 189.366 130.067C189.235 129.956 189.082 129.873 188.919 129.823C188.755 129.772 188.582 129.755 188.412 129.772C188.241 129.789 188.075 129.841 187.925 129.923C187.774 130.005 187.641 130.116 187.534 130.25L187.579 130.594C188.416 131.646 189.302 132.814 189.515 134.375C189.598 134.99 189.569 135.627 189.643 136.245C189.716 136.863 189.925 137.504 190.323 137.771C190.902 138.158 191.581 137.587 191.992 136.891C192.36 136.319 192.525 135.64 192.461 134.963C192.369 134.509 192.185 134.078 191.92 133.698Z" fill="white"/>
<path d="M208.267 110.703C208.374 110.006 208.48 109.308 208.586 108.611C208.759 107.845 208.78 107.052 208.649 106.278C208.62 106.109 208.557 105.947 208.464 105.803C208.371 105.659 208.25 105.534 208.108 105.438C207.967 105.341 207.807 105.273 207.639 105.239C207.471 105.204 207.298 105.204 207.13 105.238L206.943 105.53C206.907 106.874 206.833 108.339 205.992 109.67C205.66 110.195 205.228 110.663 204.887 111.183C204.546 111.704 204.293 112.328 204.426 112.789C204.62 113.458 205.507 113.46 206.269 113.192C206.918 112.992 207.481 112.579 207.868 112.02C208.09 111.613 208.226 111.165 208.267 110.703Z" fill="#E6E6E6"/>
<path d="M197.682 134.482C197.862 133.965 197.603 133.372 197.548 132.801C197.522 132.063 197.717 131.334 198.109 130.709C198.498 130.119 198.793 129.472 198.983 128.791C199.063 128.48 199.048 128.153 198.941 127.851C198.819 127.578 198.525 127.453 198.356 127.67L198.717 127.903C198.229 127.815 197.728 127.84 197.25 127.974C196.978 128.078 196.735 128.247 196.541 128.465C196.348 128.684 196.209 128.945 196.138 129.229C196.079 129.67 195.981 130.106 195.847 130.531C195.631 130.974 195.214 131.122 194.952 131.511C194.773 131.857 194.682 132.241 194.689 132.63C194.695 133.019 194.798 133.4 194.988 133.739C195.318 134.294 195.841 134.707 196.458 134.896C196.899 135.055 197.48 135.063 197.682 134.482Z" fill="white"/>
<path d="M207.943 137.582C208.103 137.998 208.317 138.391 208.579 138.75C209.071 139.246 209.738 138.941 210.334 138.821C210.875 138.735 211.429 138.798 211.937 139.002C212.445 139.206 212.889 139.544 213.22 139.98C212.989 138.826 212.485 137.744 211.75 136.826C211.014 135.907 210.07 135.179 208.995 134.702C207.59 134.128 206.111 134.073 204.65 134.021L204.397 134.086C205.04 135.96 207.06 135.919 207.943 137.582Z" fill="white"/>
<path d="M164.483 141.415L164.487 141.423C164.512 141.376 164.536 141.329 164.561 141.282L164.483 141.415Z" fill="#E6E6E6"/>
<path d="M162.927 144.432C162.587 145.049 162.295 145.691 162.054 146.353C161.733 147.424 161.521 148.525 161.421 149.639C161.342 150.273 161.317 151.082 161.713 151.39C161.827 151.466 161.965 151.498 162.1 151.479C162.235 151.461 162.359 151.394 162.449 151.29C162.669 151.057 162.849 150.789 162.982 150.497C163.761 149.154 164.366 147.716 164.782 146.22C165.161 144.644 165.158 142.788 164.487 141.423C163.967 142.426 163.447 143.429 162.927 144.432Z" fill="white"/>
<path d="M147.91 64.0582C148.157 64.3002 148.469 64.4645 148.809 64.5308C149.148 64.5971 149.5 64.5626 149.82 64.4314C150.482 64.1413 151.09 63.7393 151.617 63.2429C152.053 62.9199 152.423 62.5159 152.706 62.053C152.862 61.7763 152.962 61.4715 153.001 61.1561C153.039 60.8406 153.014 60.5206 152.929 60.2146C152.683 59.4939 152.058 59.2524 151.507 59.0888C150.625 58.8269 149.743 58.5651 148.861 58.3032L149.499 57.7274C148.843 57.3747 148.117 58.0293 147.707 58.8398C147.443 59.369 147.26 59.9343 147.162 60.5173C146.943 61.7894 147.157 63.3042 147.91 64.0582Z" fill="#E6E6E6"/>
<path d="M163.481 58.8242C163.73 59.0986 164.073 59.268 164.442 59.298C164.811 59.3281 165.177 59.2165 165.467 58.9859C165.716 58.7985 165.923 58.5605 166.074 58.2876C166.226 58.0147 166.318 57.713 166.345 57.402C166.407 56.7074 166.064 55.9354 165.574 55.8754L165.687 55.225C164.743 55.0544 163.581 55.0202 163.076 56.1677C162.905 56.6073 162.853 57.084 162.924 57.5501C162.995 58.0163 163.187 58.4556 163.481 58.8242Z" fill="#E6E6E6"/>
<path d="M161.401 24.24C155.868 23.6151 150.314 25.2164 145.96 28.6917C141.607 32.167 138.81 37.2315 138.186 42.7712C136.886 54.3069 142.956 79.3571 154.023 89.7269C159.234 69.8593 177.493 58.075 179.909 47.4834C182.491 36.1659 172.922 25.5412 161.401 24.24Z" fill="#0066FF"/>
<path d="M157.574 49.8851C161.356 49.8851 164.421 46.8159 164.421 43.0298C164.421 39.2438 161.356 36.1746 157.574 36.1746C153.793 36.1746 150.728 39.2438 150.728 43.0298C150.728 46.8159 153.793 49.8851 157.574 49.8851Z" fill="white"/>
<path d="M150.375 99.6112C152.852 99.6112 154.86 97.6009 154.86 95.1211C154.86 92.6414 152.852 90.6311 150.375 90.6311C147.898 90.6311 145.891 92.6414 145.891 95.1211C145.891 97.6009 147.898 99.6112 150.375 99.6112Z" fill="#0066FF"/>
<path opacity="0.2" d="M163.239 38.1183C164.01 38.582 164.682 39.1931 165.217 39.9168C165.752 40.6405 166.139 41.4625 166.356 42.336C166.574 43.2095 166.617 44.1173 166.484 45.0076C166.352 45.898 166.045 46.7534 165.582 47.525C165.119 48.2967 164.508 48.9694 163.785 49.5049C163.063 50.0403 162.242 50.428 161.369 50.6458C159.607 51.0856 157.743 50.8066 156.187 49.8701C157.773 50.2236 159.434 50.0001 160.872 49.2395C162.309 48.479 163.429 47.2311 164.032 45.7192C164.634 44.2073 164.679 42.5301 164.159 40.9878C163.64 39.4455 162.589 38.1388 161.194 37.3015C161.916 37.4615 162.606 37.7374 163.239 38.1183Z" fill="#231F20"/>
<path opacity="0.2" d="M179.936 47.5055C177.52 58.0971 159.261 69.8814 154.05 89.749C153.009 88.7644 152.043 87.704 151.158 86.5767C157.013 67.9017 174.136 56.5542 176.471 46.3208C178.56 37.1617 172.691 28.4573 164.27 24.7803C174.464 27.346 182.302 37.1341 179.936 47.5055Z" fill="#231F20"/>
<path d="M97.2394 50.988C93.0844 50.5187 88.9135 51.7212 85.644 54.3311C82.3746 56.9409 80.2746 60.7442 79.8059 64.9043C78.8299 73.5672 83.3882 92.3791 91.6989 100.166C95.612 85.2465 109.324 76.3969 111.139 68.443C113.077 59.9439 105.892 51.9651 97.2394 50.988Z" fill="#0066FF"/>
<path d="M94.3657 70.2466C97.2054 70.2466 99.5074 67.9417 99.5074 65.0985C99.5074 62.2553 97.2054 59.9504 94.3657 59.9504C91.526 59.9504 89.224 62.2553 89.224 65.0985C89.224 67.9417 91.526 70.2466 94.3657 70.2466Z" fill="white"/>
<path d="M88.9595 107.589C90.8194 107.589 92.3272 106.08 92.3272 104.217C92.3272 102.355 90.8194 100.845 88.9595 100.845C87.0996 100.845 85.5918 102.355 85.5918 104.217C85.5918 106.08 87.0996 107.589 88.9595 107.589Z" fill="#0066FF"/>
<path opacity="0.2" d="M98.62 61.4103C99.1987 61.7585 99.7033 62.2174 100.105 62.7609C100.507 63.3043 100.797 63.9217 100.961 64.5776C101.124 65.2336 101.157 65.9153 101.057 66.5839C100.957 67.2525 100.727 67.8949 100.379 68.4744C100.031 69.0539 99.5728 69.5591 99.03 69.9612C98.4872 70.3633 97.8706 70.6544 97.2155 70.818C96.5603 70.9815 95.8794 71.0142 95.2116 70.9143C94.5438 70.8143 93.9022 70.5837 93.3235 70.2355C94.5152 70.5009 95.7624 70.333 96.8418 69.7619C97.9213 69.1907 98.7624 68.2536 99.2148 67.1182C99.6672 65.9829 99.7012 64.7234 99.3109 63.5652C98.9205 62.407 98.1312 61.4256 97.0842 60.7969C97.6258 60.9171 98.1445 61.1242 98.62 61.4103Z" fill="#231F20"/>
<path opacity="0.2" d="M111.159 68.4597C109.344 76.4136 95.6321 85.2632 91.719 100.183C90.9374 99.4437 90.2115 98.6474 89.5472 97.8008C93.9444 83.7765 106.803 75.2549 108.556 67.57C110.125 60.6919 105.718 54.1551 99.3939 51.3938C107.049 53.3205 112.935 60.6711 111.159 68.4597Z" fill="#231F20"/>
<path d="M258.215 237.479H252.57L249.884 215.677L258.217 215.677L258.215 237.479Z" fill="#A0616A"/>
<path d="M261.253 248.211H257.247L256.532 244.425L254.7 248.211H244.076C243.566 248.211 243.07 248.048 242.66 247.746C242.25 247.444 241.947 247.019 241.795 246.532C241.644 246.045 241.652 245.522 241.818 245.04C241.984 244.558 242.3 244.142 242.719 243.852L251.203 237.985V234.157L260.127 234.691L261.253 248.211Z" fill="#2F2E41"/>
<path d="M236.349 237.479H230.704L228.018 215.677L236.35 215.677L236.349 237.479Z" fill="#A0616A"/>
<path d="M239.386 248.211H235.38L234.665 244.425L232.834 248.211H222.209C221.7 248.211 221.204 248.048 220.794 247.746C220.384 247.444 220.081 247.019 219.929 246.532C219.778 246.045 219.786 245.522 219.952 245.04C220.118 244.558 220.433 244.142 220.852 243.852L229.337 237.985V234.157L238.261 234.691L239.386 248.211Z" fill="#2F2E41"/>
<path d="M214.902 179.916C215.982 181.539 227.735 226.142 227.735 226.142L238.156 227.331L236.919 216.109L235.029 196.25L232.101 182.994C232.101 182.994 242.44 159.435 243.094 157.558L243.558 156.211L246.788 185.563C247.172 186.61 247.339 187.726 247.28 188.84C247.183 190.674 249.019 218.256 249.019 218.256L249.902 228.148L258.831 229.39L262.453 212.275C265.478 206.715 263.744 186.958 262.507 185.119C261.27 183.28 261.762 170.473 261.762 170.473C263.341 169.917 272.761 137.757 268.049 137.947C268.352 136.233 268.59 134.702 268.59 134.702L260.411 128.098L239.944 122.771L234.781 120.289C234.781 120.289 225.558 137.363 225.65 138.212C225.777 139.288 225.531 140.374 224.953 141.29L215.642 172.491C215.642 172.491 213.811 178.278 214.902 179.916Z" fill="#2F2E41"/>
<path d="M266.322 68.2676L263.066 61.3459L251.984 61.7724L248.369 68.9733C248.369 68.9733 238.038 81.3272 237.704 85.3442C237.284 90.3964 240.779 115.158 237.284 113.553C237.284 113.553 229.044 123.236 233.92 123.236C238.795 123.236 260.85 137.098 262.297 138.657C263.744 140.215 270.204 141.226 269.662 137.972C269.121 134.717 266.322 117.117 266.322 117.117L273.899 89.442C276.079 83.467 276.758 76.7649 271.829 72.7513L266.322 68.2676Z" fill="#CCCCCC"/>
<path d="M225.273 47.8952C223.791 47.3061 222.207 47.015 220.612 47.0387C219.018 47.0624 217.443 47.4003 215.979 48.0331C214.515 48.666 213.189 49.5814 212.079 50.7271C210.968 51.8728 210.093 53.2264 209.505 54.7105C207.03 60.9522 206.62 75.8577 211.225 83.3281C217.146 73.0302 229.125 69.2277 232.08 63.6828C235.237 57.7578 231.507 50.3728 225.273 47.8952Z" fill="#0066FF"/>
<path d="M220.288 61.7675C222.475 61.7675 224.248 59.9921 224.248 57.802C224.248 55.6119 222.475 53.8364 220.288 53.8364C218.1 53.8364 216.327 55.6119 216.327 57.802C216.327 59.9921 218.1 61.7675 220.288 61.7675Z" fill="white"/>
<path d="M208.371 88.3822C209.803 88.3822 210.965 87.2193 210.965 85.7849C210.965 84.3504 209.803 83.1875 208.371 83.1875C206.938 83.1875 205.777 84.3504 205.777 85.7849C205.777 87.2193 206.938 88.3822 208.371 88.3822Z" fill="#0066FF"/>
<path opacity="0.2" d="M224.195 55.9216C224.92 56.6811 225.315 57.698 225.292 58.7487C225.269 59.7995 224.831 60.7982 224.073 61.5255C223.315 62.2527 222.3 62.649 221.25 62.6272C220.201 62.6054 219.203 62.1674 218.476 61.4093C219.308 61.8478 220.269 61.9755 221.187 61.7694C222.104 61.5634 222.919 61.0371 223.484 60.2847C224.05 59.5323 224.329 58.6031 224.273 57.6631C224.217 56.7232 223.828 55.8341 223.177 55.1548C223.555 55.3537 223.899 55.6127 224.195 55.9216Z" fill="#231F20"/>
<path opacity="0.2" d="M232.091 63.6994C229.137 69.2443 217.158 73.0468 211.237 83.3447C210.805 82.6369 210.426 81.8981 210.103 81.1344C216.203 71.6002 227.482 67.8687 230.337 62.5114C232.891 57.7164 230.935 51.9656 226.792 48.6331C232.093 51.6147 234.984 58.2698 232.091 63.6994Z" fill="#231F20"/>
<path d="M207.202 84.8905C207.805 84.7661 208.428 84.7755 209.027 84.9182C209.626 85.0609 210.186 85.3333 210.669 85.7163C211.151 86.0994 211.544 86.5836 211.819 87.1351C212.095 87.6865 212.246 88.2916 212.262 88.9079L221.248 92.3612L220.484 98.3402L207.863 93.285C206.827 93.2441 205.842 92.8241 205.095 92.1047C204.348 91.3853 203.89 90.4165 203.808 89.3817C203.727 88.347 204.027 87.3183 204.653 86.4905C205.278 85.6628 206.185 85.0935 207.202 84.8905Z" fill="#A0616A"/>
<path d="M269.985 72.5693C269.039 71.991 267.989 71.6055 266.893 71.4347C265.798 71.2639 264.68 71.3113 263.603 71.5741C262.526 71.8369 261.512 72.31 260.618 72.9663C259.724 73.6225 258.968 74.449 258.394 75.3983L245.497 96.7226L216.336 89.802L213.68 97.1044L251.023 114.815L269.936 84.6542C272.767 80.67 274.154 75.1173 269.985 72.5693Z" fill="#CCCCCC"/>
<path d="M270.467 46.4357C270.468 48.491 269.965 50.515 269.002 52.3302C268.039 54.1453 266.646 55.696 264.944 56.8462C263.243 57.9964 261.286 58.7108 259.245 58.9269C257.203 59.1429 255.14 58.8539 253.236 58.0853C251.332 57.3166 249.646 56.0918 248.326 54.5183C247.005 52.9448 246.09 51.0709 245.662 49.0608C245.233 47.0508 245.304 44.9662 245.869 42.9901C246.433 41.0139 247.473 39.2066 248.897 37.7268L248.957 37.6666C249.058 37.5611 249.158 37.4556 249.263 37.3551C249.264 37.3551 249.265 37.355 249.265 37.3548C249.266 37.3545 249.266 37.3542 249.267 37.3537C249.267 37.3532 249.268 37.3527 249.268 37.352C249.268 37.3514 249.268 37.3508 249.268 37.3501C249.399 37.2296 249.529 37.109 249.665 36.9935C251.477 35.4029 253.708 34.3688 256.092 34.0152C258.476 33.6616 260.911 34.0033 263.106 34.9996C265.301 35.9959 267.163 37.6044 268.468 39.6326C269.774 41.6609 270.468 44.0228 270.467 46.4357Z" fill="#2F2E41"/>
<path d="M254.837 59.8696C260.644 59.8696 265.352 55.1557 265.352 49.3408C265.352 43.5259 260.644 38.812 254.837 38.812C249.029 38.812 244.321 43.5259 244.321 49.3408C244.321 55.1557 249.029 59.8696 254.837 59.8696Z" fill="#9E616A"/>
<path d="M266.004 52.3435L264.261 52.0353C263.288 51.8581 262.391 51.3876 261.692 50.6866C260.993 49.9855 260.524 49.0875 260.349 48.1125L258.649 50.9653L258.574 50.9899C254.524 52.3365 250.309 51.9337 245.693 49.7604C244.373 49.1335 243.092 48.4267 241.858 47.6438L241.767 47.5868L241.76 47.4797C241.525 44.0546 242.292 41.1932 243.922 39.4225C244.548 38.7564 245.307 38.2301 246.15 37.8782C246.993 37.5264 247.901 37.3568 248.814 37.3808C248.879 37.3638 248.939 37.3308 248.988 37.2848C249.011 37.2675 249.035 37.2504 249.058 37.2342V37.2165L249.179 37.1596C249.438 37.0375 249.703 36.9205 249.967 36.8136C252.048 36.0071 254.314 35.8048 256.504 36.2299C258.695 36.655 260.721 37.6903 262.35 39.2168C265.589 42.313 267.075 47.5089 266.047 52.1467L266.004 52.3435Z" fill="#2F2E41"/>
<path d="M288.184 61.3139C284.605 59.4646 289.207 52.7527 288.283 48.8285C287.358 44.9042 280.698 43.642 280.274 39.6324C279.85 35.6228 278.851 31.4873 276.209 28.4448C274.52 26.5007 272.032 25.0654 269.47 25.3089C268.604 25.3913 267.765 25.6598 267.011 26.096C266.257 26.5323 265.606 27.1261 265.102 27.837C264.598 28.5478 264.253 29.3591 264.091 30.2155C263.928 31.0719 263.952 31.9534 264.16 32.7998C263.431 31.765 261.543 31.9893 261.076 33.1663C260.661 34.2126 261.578 35.4801 262.658 35.5727C264.071 37.3199 265.689 39.1742 267.903 39.5267C268.256 39.6078 268.622 39.6075 268.975 39.5261C269.328 39.4446 269.657 39.2839 269.939 39.0562C270.459 38.5555 270.5 37.5543 269.882 37.1801C272.664 38.2866 274.295 41.2983 274.708 44.2669C275.121 47.2356 274.55 50.2392 274.174 53.2127C273.797 56.1862 273.635 59.3141 274.8 62.0754C276.175 65.3378 279.343 67.6761 282.8 68.426C286.256 69.1758 289.938 68.4429 293.067 66.7918C296.196 65.1405 298.805 62.6197 300.937 59.7936C297.265 62.404 292.185 63.3819 288.184 61.3139Z" fill="#2F2E41"/>
<path d="M265.556 52.0508C265.556 52.0508 262.441 40.4089 249.088 37.7218C249.073 37.7169 249.023 37.6967 248.957 37.6667C248.917 37.6415 248.867 37.6164 248.817 37.5913C248.967 37.5059 249.113 37.4306 249.263 37.3552L249.265 37.3548L249.267 37.3538L249.268 37.3521L249.268 37.3502C249.399 37.2296 249.529 37.1091 249.665 36.9936L250.046 37.0087C250.046 37.0087 263.444 34.8842 265.556 52.0508Z" fill="#FD6584"/>
<path opacity="0.2" d="M258.582 89.4067L251.04 98.1551L238.578 94.4708L252.164 100.739L258.582 89.4067Z" fill="black"/>
<path d="M303.849 248.871L187.896 249C187.763 249 187.636 248.947 187.543 248.853C187.449 248.759 187.396 248.631 187.396 248.499C187.396 248.366 187.449 248.239 187.543 248.145C187.636 248.051 187.763 247.998 187.896 247.997L303.849 247.868C303.982 247.868 304.11 247.921 304.203 248.015C304.297 248.109 304.35 248.236 304.35 248.369C304.35 248.502 304.297 248.63 304.203 248.724C304.11 248.818 303.982 248.871 303.849 248.871Z" fill="#CACACA"/>
<path d="M308.939 170.965C303.51 170.965 297.559 170.759 291.086 170.349C257.608 168.22 214.244 160.82 168.982 149.511C123.72 138.203 81.9673 124.337 51.4156 110.468C36.5329 103.712 25.1105 97.317 17.4661 91.4601C9.37264 85.2598 5.83246 79.8551 6.94346 75.397C9.10821 66.7118 28.276 64.8116 43.9746 64.7471L43.98 66.0101C22.4216 66.0987 9.70324 69.5411 8.16762 75.7029C6.2115 83.5508 22.1647 95.8027 51.9365 109.318C82.4211 123.156 124.097 136.995 169.288 148.286C214.478 159.576 257.762 166.964 291.166 169.088C323.788 171.163 343.621 167.851 345.577 160.003C347.201 153.487 336.495 143.888 315.431 132.974L316.011 131.853C331.316 139.783 349.082 151.157 346.801 160.309C345.69 164.767 340.029 167.873 329.975 169.539C324.243 170.489 317.204 170.965 308.939 170.965Z" fill="#0066FF"/>
</g>
<defs>
<clipPath id="clip0_44_29">
<rect width="347" height="249" fill="white"/>
</clipPath>
</defs>
</svg>
