<svg width="308" height="256" viewBox="0 0 308 256" fill="none" xmlns="http://www.w3.org/2000/svg">
<g clip-path="url(#clip0_45_139)">
<path d="M82.7063 240.558L87.8988 242.368L97.3536 223.209L89.6901 220.537L82.7063 240.558Z" fill="#A0616A"/>
<path d="M89.4633 243.438L90.691 239.919L89.2969 239.527L83.6254 237.918L82.3119 237.549L77.2172 248.991L76.9441 249.605L80.6309 250.89L80.9684 250.304L82.4988 247.639L82.8864 250.972L82.9703 251.705L92.7449 255.113C93.3279 255.312 93.9658 255.273 94.5203 255.005C95.0748 254.737 95.501 254.261 95.7064 253.68C96.791 251.898 90.115 244.9 89.4633 243.438Z" fill="#2F2E41"/>
<path d="M45.9845 244.614H51.4834L54.0995 223.411L45.9832 223.412L45.9845 244.614Z" fill="#A0616A"/>
<path d="M53.3132 245.109V241.383L51.8675 241.471L45.9827 241.819L44.6207 241.903L43.5795 254.384L43.5237 255.053H47.4283L47.5538 254.389L48.1209 251.368L49.5851 254.389L49.9059 255.053H60.2579C60.8739 255.049 61.4635 254.802 61.8986 254.367C62.3338 253.931 62.5794 253.341 62.582 252.725C63.019 250.685 54.4102 246.276 53.3132 245.109Z" fill="#2F2E41"/>
<path d="M85.2289 111.564L93.8653 123.007C93.8653 123.007 89.0957 122.676 93.8653 124.748C98.6349 126.821 98.7701 126.089 98.7025 128.6C98.6349 131.112 93.7728 130.737 96.2038 133.308C98.6349 135.88 114.919 170.069 114.919 170.069C114.919 170.069 101.575 219.568 99.8667 221.588C98.1579 223.607 96.2501 221.7 98.1579 223.607C100.066 225.514 102.451 223.13 100.066 225.514C97.681 227.898 94.4099 232.105 94.4099 232.105L84.8031 230.759C84.8031 230.759 74.3101 220.747 91.0036 204.059C91.0036 204.059 95.2061 187.364 93.3433 187.368C91.4806 187.372 91.4806 190.064 91.4806 184.665V179.267L69.3736 137.867C69.3736 137.867 55.2656 126.866 55.4872 121.837C55.7088 116.809 85.2289 111.564 85.2289 111.564Z" fill="#2F2E41"/>
<path d="M69.5405 123.007C69.5405 123.007 79.5566 173.546 78.1257 174.976C76.6949 176.406 76.6948 179.995 76.6948 179.995L53.8009 230.759L44.7387 231.236C44.5247 216.712 44.4658 205.695 52.3701 195.477L56.1857 120.623L69.5405 123.007Z" fill="#2F2E41"/>
<path d="M82.5441 63.0154L71.6281 54.4007L65.8979 54.0676L57.3953 59.5125L55.3134 70.1301L50.3894 82.0863L57.6114 114.352C57.6114 114.352 58.2888 116.668 56.5138 116.946C54.7388 117.224 54.9516 120.637 54.9516 120.637C54.9516 120.637 55.3131 123.595 53.5895 123.855C51.8659 124.116 47.27 124.116 51.2917 129.284C55.3133 134.453 87.1225 114.904 87.1225 114.904L91.7425 90.6712C91.7425 90.6712 100.702 78.6415 91.0533 71.7519L82.5441 63.0154Z" fill="#E6E6E6"/>
<path d="M34.8905 136.274C34.4095 135.674 34.066 134.976 33.8841 134.229C33.7022 133.482 33.6864 132.704 33.8378 131.95C33.9891 131.196 34.304 130.485 34.7602 129.866C35.2164 129.247 35.8028 128.735 36.4782 128.367L50.2088 82.3047L58.7945 86.6256L43.8416 130.776C44.3847 131.951 44.4778 133.285 44.1032 134.524C43.7286 135.763 42.9123 136.822 41.8089 137.499C40.7056 138.177 39.3919 138.427 38.1168 138.201C36.8417 137.975 35.6938 137.289 34.8905 136.274Z" fill="#A0616A"/>
<path d="M59.367 59.0866C59.367 59.0866 56.9128 57.7827 55.234 63.4249C53.8901 67.942 42.9847 94.8473 42.8456 101.389C41.9481 101.579 41.1395 102.062 40.547 102.762C39.9545 103.462 39.6118 104.34 39.573 105.256L53.0565 107.062C55.4126 105.076 56.0307 102.393 55.1191 101.596L58.0467 93.6034L70.2602 68.1732L61.1579 59.9976L59.367 59.0866Z" fill="#E6E6E6"/>
<path d="M131.413 121.133C131.588 120.384 131.595 119.606 131.436 118.854C131.277 118.102 130.955 117.394 130.492 116.779C130.03 116.165 129.438 115.66 128.759 115.299C128.08 114.938 127.33 114.73 126.561 114.69L95.0636 78.7307L88.3821 86.7003L120.964 120.045C120.983 121.34 121.476 122.582 122.35 123.538C123.223 124.493 124.417 125.095 125.705 125.229C126.993 125.363 128.286 125.02 129.338 124.265C130.39 123.51 131.128 122.396 131.413 121.133Z" fill="#A0616A"/>
<path d="M75.9524 62.117C75.9524 62.117 77.6012 59.8805 81.5557 64.2421C84.7216 67.734 106.194 87.2793 109.149 93.1173C110.041 92.9008 110.979 92.9869 111.816 93.362C112.653 93.7372 113.341 94.3801 113.773 95.1895L102.397 102.647C99.4129 101.874 97.6949 99.7221 98.1723 98.61L92.075 92.6688L70.0613 75.019L74.7317 63.7126L75.9524 62.117Z" fill="#E6E6E6"/>
<path d="M80.3616 41.9287C82.8405 35.5566 79.6826 28.3821 73.3081 25.904C66.9335 23.426 59.7564 26.5828 57.2774 32.9549C54.7984 39.327 57.9564 46.5015 64.3309 48.9796C70.7054 51.4576 77.8826 48.3008 80.3616 41.9287Z" fill="#A0616A"/>
<path d="M83.6154 26.0944C82.87 25.291 81.8827 24.7528 80.8034 24.5615C79.7242 24.3702 78.6119 24.5364 77.6357 25.0347C77.8849 23.6435 78.1342 22.2522 78.3834 20.8609C76.3124 20.544 74.2415 20.2272 72.1706 19.9103C69.0463 19.4322 65.8269 18.9573 62.7544 19.6985C60.5548 20.2611 58.5505 21.4131 56.9576 23.0304C55.3647 24.6477 54.2436 26.669 53.7151 28.8762C52.3769 27.9693 50.8113 27.4556 49.1958 27.3934C47.5803 27.3312 45.9797 27.7229 44.5758 28.5243C43.1718 29.3256 42.0207 30.5043 41.2531 31.9266C40.4856 33.349 40.1323 34.9579 40.2335 36.5708C40.3823 38.9448 41.4929 41.1354 42.1801 43.4127C44.7914 52.0667 40.4666 62.2816 32.4338 66.4323C35.021 68.3942 37.6928 70.3986 40.8257 71.2524C43.9587 72.1061 47.7039 71.545 49.7671 69.0383C50.8227 67.7559 51.3321 66.1229 51.818 64.5348C53.7824 58.1138 55.7469 51.6928 57.7113 45.2718L60.8872 51.0037C61.9014 52.4212 61.5384 54.405 60.8078 55.9873C60.0772 57.5697 59.0158 59.0346 58.6887 60.7464C58.3617 62.4583 59.1217 64.5795 60.8235 64.9577C63.1229 59.5507 65.4715 53.7889 64.5795 47.9817C64.2324 45.7215 63.4008 43.4035 64.0541 41.2121C64.5589 39.5188 65.8953 38.1862 67.38 37.2275C68.9344 36.2254 70.6803 35.5572 72.5067 35.2654C76.5431 34.6237 81.5671 35.4855 83.9363 32.1565C84.5504 31.2489 84.8514 30.1658 84.7935 29.0716C84.7355 27.9774 84.3219 26.9321 83.6154 26.0944Z" fill="#2F2E41"/>
<path d="M75.7422 102.768C81.5345 102.768 86.2301 98.0743 86.2301 92.2842C86.2301 86.4941 81.5345 81.8003 75.7422 81.8003C69.95 81.8003 65.2544 86.4941 65.2544 92.2842C65.2544 98.0743 69.95 102.768 75.7422 102.768Z" fill="#003FE1"/>
<path d="M78.1904 87.0087C78.2462 87.2364 78.3296 87.4566 78.4388 87.6642C78.5309 87.8984 78.6861 88.1026 78.8871 88.2542C79.0881 88.4058 79.3272 88.4988 79.5778 88.523C79.6199 88.5212 79.6617 88.5152 79.7026 88.505C80.151 88.3945 80.4245 87.8516 80.429 87.1735C80.429 86.939 80.4005 86.7053 80.3439 86.4777C80.2892 86.2521 80.2068 86.034 80.0986 85.8286C79.7799 85.2273 79.2828 84.8702 78.8331 84.981C78.2375 85.1279 77.9505 86.036 78.1904 87.0087Z" fill="white"/>
<path d="M78.999 87.6607C79.0838 88.0075 79.289 88.313 79.578 88.5228C79.62 88.521 79.6618 88.5149 79.7027 88.5048C80.1511 88.3943 80.4246 87.8514 80.4291 87.1733C80.4292 86.9388 80.4006 86.7051 80.3441 86.4775C80.2893 86.2519 80.2069 86.0338 80.0987 85.8284C79.7103 85.9264 79.3766 86.1743 79.1705 86.5176C78.9644 86.861 78.9027 87.272 78.999 87.6607Z" fill="#3F3D56"/>
<path d="M73.7297 88.1083C73.9602 89.0421 74.593 89.6965 75.17 89.6181C75.1942 89.615 75.2182 89.6105 75.2419 89.6047C75.8361 89.4581 76.1232 88.55 75.8832 87.5774C75.8286 87.3521 75.7463 87.1345 75.6382 86.9295C75.3191 86.3269 74.8221 85.9698 74.3724 86.0806C73.7769 86.2275 73.4898 87.1356 73.7297 88.1083Z" fill="white"/>
<path d="M74.5821 88.7498C74.6678 89.1002 74.8763 89.4083 75.1698 89.6183C75.194 89.6152 75.218 89.6107 75.2417 89.6048C75.8359 89.4583 76.123 88.5501 75.883 87.5775C75.8284 87.3523 75.7461 87.1347 75.638 86.9297C75.2604 87.0372 74.9393 87.287 74.7423 87.6265C74.5453 87.9661 74.4879 88.3688 74.5821 88.7498Z" fill="#3F3D56"/>
<path d="M82.5651 91.1814C83.2031 93.7675 82.1924 96.2407 80.3075 96.7054C78.4226 97.1701 76.3773 95.4504 75.7393 92.8642C78.0653 93.448 80.3422 92.9224 82.5651 91.1814Z" fill="white"/>
<path opacity="0.2" d="M65.5603 94.8146C65.0447 92.7246 65.1849 90.5265 65.962 88.5189C66.7391 86.5113 68.1154 84.7913 69.9041 83.5925C68.235 85.5091 67.319 87.9663 67.3264 90.5073C67.3338 93.0483 68.264 95.5001 69.9441 97.407C71.6242 99.3138 73.9399 100.546 76.4606 100.874C78.9813 101.202 81.5354 100.604 83.648 99.191C82.3872 100.638 80.753 101.712 78.9238 102.294C77.0945 102.877 75.1404 102.946 73.2745 102.494C71.4085 102.043 69.7024 101.088 68.3421 99.7338C66.9818 98.3796 66.0196 96.678 65.5603 94.8146Z" fill="black"/>
<path d="M303.82 248.262C303.612 248.272 303.407 248.217 303.231 248.106C303.056 247.995 302.919 247.833 302.838 247.641C302.758 247.449 302.739 247.238 302.783 247.035C302.827 246.832 302.933 246.647 303.085 246.506L303.155 246.23C303.146 246.208 303.137 246.186 303.127 246.164C302.918 245.67 302.568 245.249 302.12 244.954C301.672 244.659 301.147 244.502 300.611 244.504C300.075 244.506 299.551 244.667 299.105 244.965C298.66 245.264 298.312 245.687 298.107 246.183C297.286 248.16 296.241 250.14 295.983 252.23C295.87 253.154 295.918 254.09 296.124 254.998C294.196 250.793 293.195 246.222 293.188 241.596C293.188 240.435 293.252 239.275 293.381 238.122C293.488 237.176 293.636 236.237 293.826 235.304C294.859 230.246 297.079 225.505 300.301 221.47C301.861 220.619 303.122 219.311 303.915 217.722C304.203 217.15 304.406 216.54 304.518 215.911C304.342 215.934 303.855 213.255 303.988 213.091C303.742 212.719 303.303 212.534 303.036 212.171C301.704 210.366 299.869 210.681 298.911 213.134C296.864 214.166 296.845 215.879 298.1 217.525C298.899 218.573 299.009 219.991 299.71 221.112C299.638 221.205 299.563 221.294 299.491 221.386C298.172 223.081 297.024 224.9 296.06 226.819C296.295 224.669 296.015 222.495 295.245 220.475C294.464 218.592 293.001 217.007 291.712 215.379C291.371 214.942 290.908 214.616 290.382 214.441C289.856 214.267 289.289 214.253 288.755 214.4C288.22 214.547 287.741 214.85 287.379 215.269C287.016 215.688 286.786 216.206 286.717 216.756C286.715 216.78 286.712 216.804 286.71 216.828C286.901 216.936 287.088 217.05 287.272 217.171C287.502 217.325 287.68 217.545 287.784 217.802C287.887 218.059 287.91 218.341 287.85 218.611C287.79 218.882 287.65 219.127 287.448 219.317C287.246 219.506 286.991 219.63 286.717 219.672L286.689 219.676C286.758 220.366 286.878 221.049 287.05 221.721C285.397 228.112 288.966 230.439 294.062 230.544C294.175 230.602 294.284 230.659 294.397 230.714C293.429 233.455 292.822 236.311 292.591 239.209C292.46 240.918 292.468 242.636 292.614 244.344L292.605 244.283C292.236 242.384 291.222 240.67 289.735 239.431C287.527 237.617 284.406 236.949 282.024 235.491C281.77 235.329 281.476 235.242 281.175 235.241C280.874 235.241 280.579 235.326 280.325 235.487C280.071 235.648 279.869 235.879 279.741 236.152C279.614 236.424 279.567 236.727 279.607 237.026L279.617 237.089C279.972 237.234 280.318 237.401 280.652 237.588C280.844 237.696 281.031 237.811 281.214 237.932C281.445 238.086 281.623 238.305 281.726 238.562C281.829 238.819 281.853 239.101 281.793 239.372C281.733 239.642 281.593 239.888 281.391 240.077C281.188 240.267 280.934 240.39 280.66 240.433L280.632 240.437C280.612 240.44 280.594 240.443 280.574 240.446C281.181 241.894 282.033 243.227 283.092 244.387C284.126 249.966 288.566 250.496 293.315 248.871H293.318C293.839 251.134 294.594 253.338 295.571 255.445H303.618C303.647 255.356 303.673 255.263 303.699 255.174C302.954 255.221 302.206 255.176 301.472 255.041C302.069 254.309 302.666 253.571 303.264 252.838C303.277 252.825 303.289 252.81 303.301 252.795C303.604 252.42 303.91 252.048 304.213 251.674L304.213 251.673C304.229 250.524 304.097 249.378 303.82 248.262Z" fill="#F2F2F2"/>
<path d="M2.3522e-06 255.469C-0.00020579 255.539 0.0134017 255.608 0.0400371 255.672C0.0666726 255.737 0.105814 255.795 0.155208 255.845C0.204601 255.894 0.26327 255.933 0.327844 255.96C0.392419 255.987 0.461629 256 0.53148 256H307.469C307.61 256 307.745 255.944 307.844 255.844C307.944 255.745 308 255.61 308 255.469C308 255.328 307.944 255.193 307.844 255.093C307.745 254.993 307.61 254.938 307.469 254.938H0.531453C0.461605 254.937 0.392401 254.951 0.327831 254.978C0.26326 255.004 0.204591 255.043 0.155201 255.093C0.105811 255.142 0.0666717 255.201 0.0400371 255.265C0.0134025 255.33 -0.000203402 255.399 2.3522e-06 255.469Z" fill="#CCCCCC"/>
<path d="M217.472 248.158L210.994 248.158L207.912 223.177L217.474 223.178L217.472 248.158Z" fill="#FFB6B6"/>
<path d="M217.7 254.914L197.778 254.913V254.662C197.778 252.606 198.595 250.634 200.049 249.181C201.503 247.727 203.476 246.91 205.532 246.91H205.533L209.172 244.15L215.962 246.911L217.701 246.911L217.7 254.914Z" fill="#2F2E41"/>
<path d="M245.733 248.158L239.255 248.158L236.173 223.177L245.735 223.178L245.733 248.158Z" fill="#FFB6B6"/>
<path d="M245.961 254.914L226.039 254.913V254.662C226.039 252.606 226.856 250.634 228.31 249.181C229.764 247.727 231.737 246.91 233.793 246.91H233.794L237.433 244.15L244.223 246.911L245.962 246.911L245.961 254.914Z" fill="#2F2E41"/>
<path d="M201.341 112.049C201.341 112.049 195.108 131.187 196.259 133.705C197.409 136.224 199.372 134.262 197.409 136.224C195.446 138.187 193.732 136.101 195.571 139.433C197.409 142.765 200.194 170.198 201.419 171.526C202.644 172.854 204.328 172.889 202.831 174.18C201.335 175.47 199.372 172.854 201.335 175.47C203.298 178.086 208.507 238.443 208.507 238.443H218.683C218.683 238.443 221.217 235.523 219.783 233.623C218.348 231.722 219.908 230.989 219.783 229.721C219.657 228.452 220.134 225.716 220.222 224.467C220.311 223.219 222.031 193.478 217.899 176.298L225.433 143.585L234.559 183.123C234.559 183.123 230.361 216.286 234.559 226.948C234.559 226.948 231.174 229.765 232.675 231.398C234.176 233.03 235.485 231.722 234.176 233.03C232.868 234.338 236.139 238.917 236.139 238.917L247.263 238.263L253.559 176.298C253.559 176.298 254.621 169.835 253.559 168.728C252.498 167.621 252.498 171.545 252.498 167.621V162.388C252.498 162.388 251.883 130.204 251.801 128.308C251.719 126.413 243.867 112.677 243.867 112.677L201.341 112.049Z" fill="#2F2E41"/>
<path d="M201.434 45.9503V83.6865C202.653 87.3404 203.281 91.1651 203.296 95.0167C203.256 101.432 201.845 108.825 201.849 112.057C201.831 112.485 201.877 112.914 201.988 113.329C208.236 131.432 241.297 114.981 244.302 113.441C244.445 113.369 244.521 113.329 244.521 113.329L243.869 93.0525L243.981 87.2222L244.753 47.2271L244.061 46.6735L237.996 41.8387L237.402 41.3655L235.58 44.0217L219.338 42.9057L213.139 41.1914L211.205 41.9771L202.488 45.5217L201.434 45.9503Z" fill="#003FE1"/>
<path d="M191.817 121.876L193.952 110.084L200.861 110.363L198.16 122.75C198.524 123.402 198.7 124.142 198.667 124.887C198.634 125.633 198.393 126.354 197.973 126.971C197.552 127.587 196.967 128.074 196.285 128.377C195.602 128.679 194.849 128.786 194.109 128.684C193.37 128.582 192.673 128.276 192.098 127.8C191.523 127.324 191.092 126.697 190.854 125.99C190.616 125.282 190.58 124.523 190.75 123.796C190.92 123.069 191.289 122.404 191.817 121.876Z" fill="#FFB6B6"/>
<path d="M202.495 45.8701C206.046 46.7894 208.072 51.39 209.32 54.8379C210.925 59.2676 208.321 86.5772 205.154 90.5606C202.697 93.6501 203.28 93.0563 204.091 95.6151C204.902 98.1739 206.776 95.6782 205.089 99.4844C203.403 103.291 201.967 102.604 203.09 104.227C204.214 105.849 205.525 105.663 204.088 108.096C202.652 110.529 202.776 111.403 202.464 112.339C202.152 113.275 201.775 120.015 201.775 120.015C201.775 120.015 194.472 118.827 190.663 120.262C190.663 120.262 193.287 113.647 192.226 112.461C191.165 111.275 189.792 111.026 190.916 109.528C192.04 108.031 194.287 108.156 191.915 107.157C189.543 106.158 191.544 92.055 191.544 92.055C188.881 82.7723 190.737 68.8877 193.432 54.1475C193.831 51.9677 194.933 49.9783 196.569 48.4835C198.206 46.9888 200.287 46.0709 202.495 45.8701Z" fill="#003FE1"/>
<path d="M248.573 121.093L249.09 109.12L255.973 108.461L254.976 121.1C255.426 121.695 255.7 122.405 255.769 123.148C255.837 123.891 255.697 124.639 255.363 125.306C255.03 125.974 254.517 126.536 253.882 126.928C253.247 127.32 252.515 127.528 251.768 127.527C251.021 127.526 250.29 127.317 249.656 126.924C249.021 126.53 248.509 125.967 248.177 125.299C247.846 124.63 247.707 123.883 247.777 123.14C247.847 122.397 248.122 121.688 248.573 121.093Z" fill="#FFB6B6"/>
<path d="M241.378 46.062L241.571 46.0847C243.365 46.2963 245.081 46.9419 246.569 47.9655C248.058 48.9891 249.274 50.3599 250.113 51.9593C252.305 56.1305 259.238 84.382 257.54 88.259C255.957 91.8747 256.022 90.9856 257.173 93.4109C258.323 95.8361 259.841 93.1095 258.686 97.1092C257.532 101.109 256.016 100.623 257.349 102.079C258.682 103.534 259.956 103.171 258.863 105.777C257.769 108.383 258.011 109.231 257.829 110.201C257.646 111.171 258.188 117.899 258.188 117.899C258.188 117.899 250.79 117.712 247.212 119.65C247.212 119.65 248.914 112.741 247.702 111.71C246.49 110.678 245.095 110.617 246.006 108.981C246.916 107.345 249.16 107.165 246.674 106.496C244.189 105.828 244.259 91.584 244.259 91.584L241.378 46.062Z" fill="#003FE1"/>
<path d="M223.643 30.8031C223.933 30.8701 224.224 30.9281 224.514 30.9728C225.401 31.1184 226.301 31.1648 227.198 31.1112C229.535 30.9858 231.791 30.2158 233.716 28.8868C235.642 27.5577 237.162 25.7215 238.107 23.5817C239.052 21.4419 239.386 19.0822 239.072 16.7643C238.757 14.4464 237.807 12.2609 236.325 10.4501C234.844 8.63928 232.89 7.274 230.68 6.50564C228.47 5.73729 226.09 5.59589 223.804 6.09713C221.518 6.59837 219.416 7.72266 217.731 9.34531C216.046 10.968 214.843 13.0256 214.256 15.2899C214.229 15.3926 214.202 15.4908 214.18 15.5935C213.418 18.8648 213.987 22.3047 215.761 25.1569C217.536 28.009 220.371 30.04 223.643 30.8031Z" fill="#FFB6B6"/>
<path d="M235.336 29.3088C237.098 27.9303 237.269 25.3028 238.773 23.6465C241.287 20.8772 242.468 17.8979 241.151 14.6165C239.986 11.7143 240.234 8.14671 237.725 6.27857C238.957 5.83271 239.247 4.90679 238.16 4.8897C237.427 4.87817 234.694 6.27883 236.009 4.53398C237.324 2.78913 234.834 3.47786 234.999 2.76363C235.164 2.04941 236.22 1.65383 236.685 2.21998C235.199 0.478657 231.952 0.849906 230.897 2.88185C229.415 0.661912 227.842 -0.865613 225.575 0.543162C223.348 1.92678 223.377 3.63713 220.982 3.22608C219.856 3.03286 219.75 5.1591 218.981 6.00338C218.212 6.84766 217.087 7.50108 215.965 7.28903C214.843 7.07699 213.984 5.67871 214.613 4.72549L211.968 10.7586L210.901 9.45126C209.207 10.5549 209.764 13.4349 211.469 14.5212C213.174 15.6075 216.429 13.0967 217.354 14.8939C218.813 17.727 222.236 16.2964 224.586 14.2943C227.436 11.8662 230.876 19.2488 229.503 22.7312C230.928 21.3329 233.563 22.4933 234.301 24.3477C235.039 26.2021 234.498 28.2913 233.951 30.2107L235.336 29.3088Z" fill="#2F2E41"/>
<path d="M211.206 41.9773L211.648 42.5398L212.836 44.0487L217.232 57.0308L237.997 41.839L237.403 41.3657L234.241 34.6471L217.998 33.531L213.139 41.1916L211.206 41.9773Z" fill="#3F3D56"/>
<path d="M233.31 75.0894C232.264 86.3229 224.779 94.8119 216.591 94.0501C208.404 93.2884 202.614 83.5643 203.66 72.3308C212.154 77.9005 221.994 78.9637 233.31 75.0894Z" fill="white"/>
<path d="M213.967 61.7291C213.925 62.3969 213.802 63.0571 213.6 63.6951C213.058 65.3662 212.008 66.5435 210.833 66.6803C210.714 66.6963 210.593 66.7004 210.473 66.6925C209.158 66.6075 208.117 65.2202 207.763 63.3179C207.645 62.6592 207.607 61.9886 207.652 61.3208C207.692 60.6595 207.813 60.0057 208.014 59.3742C208.607 57.5251 209.823 56.2719 211.142 56.3571C212.889 56.47 214.152 58.8764 213.967 61.7291Z" fill="white"/>
<path d="M212.025 63.9678C211.961 64.9846 211.539 65.9458 210.833 66.6804C210.714 66.6964 210.593 66.7005 210.473 66.6926C209.158 66.6076 208.117 65.2203 207.763 63.318C207.645 62.6593 207.607 61.9887 207.652 61.321C207.692 60.6596 207.813 60.0058 208.014 59.3743C209.154 59.4544 210.216 59.9826 210.968 60.8434C211.72 61.7042 212.1 62.8276 212.025 63.9678Z" fill="#3F3D56"/>
<path d="M227.05 62.5745C226.873 65.3133 225.425 67.4696 223.765 67.5396C223.696 67.5431 223.626 67.5426 223.556 67.538C221.814 67.4253 220.55 65.0189 220.735 62.1663C220.775 61.5063 220.896 60.8537 221.097 60.2235C221.69 58.3705 222.906 57.1173 224.225 57.2026C225.972 57.3155 227.235 59.7219 227.05 62.5745Z" fill="white"/>
<path d="M224.979 64.8048C224.914 65.8322 224.484 66.8025 223.765 67.5397C223.696 67.5432 223.626 67.5426 223.556 67.538C221.814 67.4254 220.55 65.019 220.735 62.1664C220.775 61.5063 220.896 60.8538 221.097 60.2236C222.212 60.3356 223.239 60.8759 223.963 61.7304C224.688 62.585 225.052 63.6872 224.979 64.8048Z" fill="#3F3D56"/>
<path d="M117.003 36.5761C120.413 36.5761 123.177 33.8131 123.177 30.4046C123.177 26.9962 120.413 24.2332 117.003 24.2332C113.594 24.2332 110.83 26.9962 110.83 30.4046C110.83 33.8131 113.594 36.5761 117.003 36.5761Z" fill="#F2F2F2"/>
<path d="M117.786 27.8317C117.779 27.9696 117.79 28.1078 117.817 28.2432C117.83 28.3908 117.884 28.5319 117.972 28.6508C118.061 28.7698 118.18 28.862 118.318 28.9173C118.342 28.9233 118.366 28.9268 118.391 28.9279C118.663 28.9399 118.907 28.6787 119.023 28.2965C119.062 28.1641 119.084 28.0274 119.09 27.8895C119.097 27.753 119.086 27.6161 119.059 27.4821C118.979 27.0897 118.758 26.8054 118.486 26.7934C118.125 26.7774 117.812 27.2426 117.786 27.8317Z" fill="white"/>
<path d="M118.134 28.3345C118.124 28.5445 118.189 28.7511 118.318 28.9175C118.342 28.9235 118.366 28.927 118.391 28.9281C118.663 28.9401 118.907 28.6789 119.022 28.2967C119.061 28.1643 119.084 28.0276 119.09 27.8897C119.097 27.7532 119.086 27.6164 119.059 27.4824C118.824 27.4733 118.594 27.5578 118.421 27.7175C118.247 27.8772 118.144 28.099 118.134 28.3345Z" fill="#F2F2F2"/>
<path d="M115.084 27.7123C115.059 28.278 115.307 28.7526 115.646 28.8042C115.66 28.8064 115.675 28.8079 115.689 28.8085C116.049 28.8244 116.362 28.3592 116.388 27.7701C116.395 27.6339 116.384 27.4973 116.357 27.3636C116.277 26.9703 116.056 26.686 115.784 26.674C115.423 26.658 115.11 27.1232 115.084 27.7123Z" fill="white"/>
<path d="M115.459 28.2161C115.449 28.4282 115.515 28.6369 115.646 28.8041C115.66 28.8064 115.675 28.8079 115.689 28.8085C116.049 28.8244 116.362 28.3592 116.388 27.7701C116.395 27.6338 116.384 27.4973 116.357 27.3636C116.126 27.3616 115.904 27.4493 115.736 27.6084C115.568 27.7674 115.469 27.9853 115.459 28.2161Z" fill="#F2F2F2"/>
<path d="M119.563 30.9147C119.493 32.4812 118.512 33.7101 117.37 33.6595C116.228 33.609 115.359 32.2981 115.428 30.7317C116.052 31.0913 116.754 31.2957 117.473 31.3275C118.193 31.3594 118.91 31.2178 119.563 30.9147Z" fill="white"/>
<path d="M149.604 100.415C153.014 100.415 155.778 97.6517 155.778 94.2433C155.778 90.8348 153.014 88.0718 149.604 88.0718C146.195 88.0718 143.431 90.8348 143.431 94.2433C143.431 97.6517 146.195 100.415 149.604 100.415Z" fill="#F2F2F2"/>
<path d="M150.387 91.6704C150.38 91.8083 150.391 91.9464 150.418 92.0818C150.431 92.2294 150.485 92.3705 150.573 92.4895C150.662 92.6084 150.781 92.7007 150.919 92.756C150.943 92.7619 150.967 92.7655 150.992 92.7665C151.264 92.7785 151.508 92.5174 151.624 92.1352C151.663 92.0027 151.685 91.866 151.691 91.7281C151.698 91.5916 151.687 91.4548 151.66 91.3208C151.58 90.9283 151.359 90.644 151.087 90.632C150.726 90.616 150.413 91.0812 150.387 91.6704Z" fill="white"/>
<path d="M150.735 92.1729C150.725 92.3829 150.79 92.5895 150.919 92.7559C150.943 92.7619 150.967 92.7654 150.992 92.7665C151.264 92.7785 151.508 92.5173 151.624 92.1351C151.663 92.0027 151.685 91.866 151.691 91.7281C151.698 91.5916 151.687 91.4547 151.66 91.3207C151.425 91.3116 151.195 91.3962 151.022 91.5559C150.848 91.7156 150.745 91.9374 150.735 92.1729Z" fill="#F2F2F2"/>
<path d="M147.685 91.5507C147.66 92.1164 147.908 92.591 148.247 92.6426C148.262 92.6448 148.276 92.6463 148.29 92.6469C148.65 92.6628 148.963 92.1976 148.989 91.6085C148.996 91.4722 148.986 91.3357 148.959 91.202C148.878 90.8087 148.657 90.5244 148.385 90.5124C148.024 90.4964 147.711 90.9616 147.685 91.5507Z" fill="white"/>
<path d="M148.06 92.0545C148.05 92.2666 148.117 92.4753 148.247 92.6425C148.262 92.6448 148.276 92.6463 148.29 92.6469C148.65 92.6628 148.963 92.1976 148.989 91.6085C148.996 91.4722 148.986 91.3357 148.959 91.2019C148.727 91.1999 148.505 91.2877 148.337 91.4467C148.169 91.6058 148.07 91.8237 148.06 92.0545Z" fill="#F2F2F2"/>
<path d="M152.164 94.7533C152.095 96.3198 151.113 97.5487 149.971 97.4981C148.829 97.4476 147.96 96.1368 148.03 94.5703C148.653 94.9299 149.355 95.1343 150.074 95.1662C150.794 95.198 151.511 95.0564 152.164 94.7533Z" fill="white"/>
<path d="M268.397 28.0942C271.807 28.0942 274.571 25.3311 274.571 21.9227C274.571 18.5143 271.807 15.7512 268.397 15.7512C264.988 15.7512 262.224 18.5143 262.224 21.9227C262.224 25.3311 264.988 28.0942 268.397 28.0942Z" fill="#F2F2F2"/>
<path d="M269.18 19.3498C269.173 19.4877 269.184 19.6259 269.211 19.7612C269.224 19.9088 269.278 20.0499 269.366 20.1689C269.455 20.2879 269.574 20.3801 269.712 20.4354C269.736 20.4413 269.76 20.4449 269.785 20.446C270.057 20.458 270.301 20.1968 270.417 19.8146C270.456 19.6822 270.478 19.5455 270.484 19.4075C270.491 19.271 270.48 19.1342 270.453 19.0002C270.373 18.6077 270.152 18.3235 269.88 18.3114C269.519 18.2955 269.206 18.7607 269.18 19.3498Z" fill="white"/>
<path d="M269.528 19.8524C269.518 20.0623 269.583 20.2689 269.712 20.4354C269.736 20.4413 269.76 20.4448 269.785 20.4459C270.057 20.4579 270.301 20.1968 270.416 19.8146C270.455 19.6821 270.478 19.5454 270.484 19.4075C270.491 19.271 270.48 19.1342 270.453 19.0002C270.218 18.9911 269.988 19.0756 269.815 19.2353C269.641 19.395 269.538 19.6169 269.528 19.8524Z" fill="#F2F2F2"/>
<path d="M266.478 19.2302C266.453 19.7958 266.701 20.2704 267.04 20.322C267.054 20.3243 267.069 20.3257 267.083 20.3263C267.443 20.3422 267.756 19.877 267.782 19.2879C267.789 19.1517 267.778 19.0151 267.751 18.8814C267.671 18.4881 267.45 18.2039 267.178 18.1918C266.817 18.1758 266.504 18.641 266.478 19.2302Z" fill="white"/>
<path d="M266.853 19.7339C266.843 19.946 266.909 20.1547 267.04 20.322C267.055 20.3242 267.069 20.3257 267.083 20.3263C267.443 20.3422 267.756 19.877 267.782 19.2879C267.789 19.1517 267.779 19.0151 267.752 18.8814C267.52 18.8794 267.298 18.9671 267.13 19.1262C266.962 19.2852 266.863 19.5031 266.853 19.7339Z" fill="#F2F2F2"/>
<path d="M270.957 22.4328C270.888 23.9992 269.906 25.2281 268.764 25.1776C267.622 25.127 266.753 23.8162 266.822 22.2498C267.446 22.6094 268.148 22.8138 268.867 22.8456C269.587 22.8775 270.304 22.7359 270.957 22.4328Z" fill="white"/>
<path d="M8.48189 191.932C11.8916 191.932 14.6557 189.169 14.6557 185.76C14.6557 182.352 11.8916 179.589 8.48189 179.589C5.0722 179.589 2.30811 182.352 2.30811 185.76C2.30811 189.169 5.0722 191.932 8.48189 191.932Z" fill="#F2F2F2"/>
<path d="M9.26424 183.187C9.2579 183.325 9.26842 183.463 9.29556 183.599C9.30866 183.746 9.36234 183.887 9.45069 184.006C9.53903 184.125 9.65857 184.218 9.79609 184.273C9.82016 184.279 9.84477 184.282 9.86954 184.283C10.1411 184.295 10.3858 184.034 10.501 183.652C10.54 183.52 10.5627 183.383 10.5686 183.245C10.5752 183.108 10.5649 182.972 10.5379 182.838C10.4578 182.445 10.2365 182.161 9.96411 182.149C9.60336 182.133 9.29035 182.598 9.26424 183.187Z" fill="white"/>
<path d="M9.61228 183.69C9.60256 183.9 9.66766 184.107 9.79601 184.273C9.82008 184.279 9.84468 184.282 9.86945 184.284C10.141 184.296 10.3857 184.034 10.5009 183.652C10.5399 183.52 10.5626 183.383 10.5685 183.245C10.5751 183.109 10.5648 182.972 10.5378 182.838C10.3022 182.829 10.0725 182.913 9.8991 183.073C9.72565 183.233 9.62253 183.454 9.61228 183.69Z" fill="#F2F2F2"/>
<path d="M6.56229 183.068C6.53723 183.633 6.78587 184.108 7.12473 184.16C7.13893 184.162 7.15325 184.163 7.16761 184.164C7.52756 184.18 7.84058 183.715 7.86668 183.126C7.87326 182.989 7.86295 182.853 7.83596 182.719C7.75591 182.326 7.53457 182.042 7.26218 182.029C6.90142 182.013 6.58839 182.479 6.56229 183.068Z" fill="white"/>
<path d="M6.93723 183.572C6.92741 183.784 6.99396 183.992 7.1248 184.16C7.139 184.162 7.15332 184.163 7.16768 184.164C7.52763 184.18 7.84065 183.715 7.86675 183.126C7.87333 182.989 7.86302 182.853 7.83603 182.719C7.6049 182.717 7.38202 182.805 7.21436 182.964C7.0467 183.123 6.94734 183.341 6.93723 183.572Z" fill="#F2F2F2"/>
<path d="M11.0414 186.27C10.972 187.837 9.99022 189.066 8.84853 189.015C7.70683 188.964 6.83756 187.654 6.90696 186.087C7.53093 186.447 8.23227 186.651 8.95183 186.683C9.67139 186.715 10.3881 186.573 11.0414 186.27Z" fill="white"/>
<path d="M9.82174 94.1647C13.2314 94.1647 15.9955 91.4017 15.9955 87.9933C15.9955 84.5848 13.2314 81.8218 9.82174 81.8218C6.41205 81.8218 3.64795 84.5848 3.64795 87.9933C3.64795 91.4017 6.41205 94.1647 9.82174 94.1647Z" fill="#F2F2F2"/>
<path d="M10.6041 85.4206C10.5977 85.5585 10.6083 85.6967 10.6354 85.832C10.6485 85.9796 10.7022 86.1207 10.7905 86.2397C10.8789 86.3587 10.9984 86.4509 11.1359 86.5062C11.16 86.5121 11.1846 86.5157 11.2094 86.5168C11.481 86.5288 11.7256 86.2676 11.8409 85.8854C11.8799 85.753 11.9026 85.6163 11.9084 85.4784C11.915 85.3418 11.9047 85.205 11.8778 85.071C11.7977 84.6785 11.5763 84.3943 11.304 84.3822C10.9432 84.3663 10.6302 84.8315 10.6041 85.4206Z" fill="white"/>
<path d="M10.9521 85.9232C10.9424 86.1331 11.0075 86.3397 11.1359 86.5062C11.1599 86.5121 11.1845 86.5157 11.2093 86.5167C11.4809 86.5288 11.7256 86.2676 11.8408 85.8854C11.8798 85.7529 11.9025 85.6163 11.9084 85.4783C11.915 85.3418 11.9047 85.205 11.8777 85.071C11.642 85.0619 11.4124 85.1464 11.2389 85.3061C11.0655 85.4658 10.9624 85.6877 10.9521 85.9232Z" fill="#F2F2F2"/>
<path d="M7.90213 85.301C7.87707 85.8666 8.12571 86.3413 8.46458 86.3928C8.47877 86.3951 8.49309 86.3965 8.50745 86.3971C8.86741 86.4131 9.18042 85.9479 9.20652 85.3587C9.21311 85.2225 9.20279 85.0859 9.1758 84.9522C9.09575 84.5589 8.87441 84.2747 8.60203 84.2626C8.24126 84.2466 7.92823 84.7118 7.90213 85.301Z" fill="white"/>
<path d="M8.27683 85.8047C8.26701 86.0169 8.33356 86.2255 8.4644 86.3928C8.4786 86.3951 8.49292 86.3965 8.50728 86.3971C8.86723 86.4131 9.18025 85.9479 9.20635 85.3587C9.21293 85.2225 9.20262 85.0859 9.17563 84.9522C8.9445 84.9502 8.72162 85.0379 8.55396 85.197C8.3863 85.356 8.28694 85.5739 8.27683 85.8047Z" fill="#F2F2F2"/>
<path d="M12.381 88.5033C12.3116 90.0698 11.3298 91.2987 10.1881 91.2481C9.04643 91.1976 8.17716 89.8868 8.24656 88.3203C8.87053 88.6799 9.57187 88.8843 10.2914 88.9162C11.011 88.948 11.7277 88.8064 12.381 88.5033Z" fill="white"/>
</g>
<defs>
<clipPath id="clip0_45_139">
<rect width="308" height="256" fill="white"/>
</clipPath>
</defs>
</svg>
